<?xml version="1.0" standalone="no"?>
<!DOCTYPE svg PUBLIC "-//W3C//DTD SVG 20010904//EN"
 "http://www.w3.org/TR/2001/REC-SVG-20010904/DTD/svg10.dtd">
<svg version="1.0" xmlns="http://www.w3.org/2000/svg"
 width="1920.000000pt" height="1920.000000pt" viewBox="0 0 1920.000000 1920.000000"
 preserveAspectRatio="xMidYMid meet">

<g transform="translate(0.000000,1920.000000) scale(0.100000,-0.100000)"
fill="#000000" stroke="none">
<path d="M0 9600 l0 -9600 9600 0 9600 0 0 9600 0 9600 -9600 0 -9600 0 0
-9600z m10370 6316 c543 -52 1012 -143 1504 -292 594 -181 1234 -477 1775
-823 154 -98 431 -292 431 -301 0 -3 -16 -14 -35 -24 -52 -29 -133 -119 -162
-182 -14 -30 -30 -85 -35 -122 -14 -95 -14 -95 -90 -98 -112 -4 -210 -67 -265
-171 -46 -87 -63 -155 -63 -257 0 -75 -3 -93 -19 -110 -11 -12 -31 -44 -45
-72 -20 -41 -35 -56 -69 -72 -58 -27 -99 -63 -122 -106 l-20 -36 -683 0 -683
0 11 21 c12 21 6 69 -8 69 -4 0 -18 -20 -31 -45 l-24 -45 -1837 0 -1836 0 -30
31 c-36 39 -98 68 -144 69 -19 0 -71 -7 -115 -16 -64 -13 -89 -14 -122 -5 -68
18 -75 32 -71 125 l3 80 -34 23 c-53 36 -61 31 -40 -29 10 -29 18 -68 19 -86
l0 -34 -29 24 c-15 14 -43 30 -60 38 -29 11 -37 11 -69 -6 -20 -10 -40 -20
-44 -22 -4 -2 -29 17 -55 41 -26 24 -58 49 -70 56 -36 18 -137 25 -189 12 -43
-11 -50 -10 -95 14 -86 44 -153 57 -236 44 -70 -11 -72 -11 -134 20 -44 22
-76 31 -111 31 -46 0 -51 3 -112 64 -59 59 -114 92 -218 134 -20 8 -30 22 -38
54 -6 24 -24 86 -40 138 -49 157 -153 292 -276 357 -58 31 -63 37 -111 128
l-51 96 32 23 c51 39 282 188 418 269 940 564 2068 921 3148 997 85 6 175 12
200 14 116 10 826 -4 980 -18z m-2795 -2926 c3 -5 15 -10 26 -10 10 0 19 5 19
10 0 7 675 10 2005 10 l2005 0 -6 -24 c-9 -36 13 -41 31 -6 l16 30 615 0 c707
0 620 12 746 -107 89 -84 140 -107 243 -107 67 0 89 4 139 28 58 28 59 28 100
11 181 -76 263 -92 367 -75 64 11 103 27 233 98 38 21 39 21 76 2 21 -11 71
-25 111 -31 88 -13 163 -1 259 43 73 33 81 32 190 -7 65 -24 85 -27 160 -23
104 6 181 34 251 91 89 73 84 71 133 58 34 -8 55 -7 100 4 31 8 87 15 124 15
l67 -1 116 -167 c201 -289 370 -571 522 -869 l82 -162 -43 -172 c-23 -94 -41
-174 -38 -176 2 -2 14 12 26 32 72 117 20 -117 -65 -293 -30 -63 -55 -116 -55
-118 0 -3 21 7 46 22 l46 27 -7 -24 c-15 -50 -98 -196 -166 -291 -39 -54 -69
-103 -67 -107 2 -5 46 8 98 29 52 21 97 36 99 34 9 -9 -113 -231 -215 -392
l-109 -172 -1443 0 -1443 0 -47 27 c-26 15 -117 74 -202 132 -85 57 -175 113
-200 123 -25 11 -62 26 -82 35 -42 18 -190 183 -410 458 -197 246 -377 436
-529 556 -35 28 -89 75 -119 104 -55 54 -125 92 -211 115 -24 7 -56 19 -72 26
l-27 15 21 42 c12 23 37 63 55 88 19 26 34 53 34 62 0 8 11 40 25 71 14 31 25
68 25 83 0 35 -9 24 -30 -35 -9 -26 -43 -88 -74 -137 -31 -49 -59 -107 -63
-127 -3 -21 -8 -38 -12 -38 -3 0 -46 32 -95 71 -104 82 -150 110 -227 138 -42
16 -67 34 -104 77 -52 61 -187 166 -242 189 -19 8 -71 52 -116 98 -87 89 -147
128 -307 198 -73 33 -109 42 -216 55 -86 11 -163 27 -234 51 -187 63 -310 54
-550 -40 -105 -41 -125 -45 -235 -52 -66 -3 -183 -13 -260 -21 -178 -18 -287
-18 -349 1 -85 26 -193 29 -353 10 -87 -10 -155 -23 -164 -31 -8 -8 -78 -41
-154 -74 -75 -33 -144 -65 -153 -72 -8 -7 -25 -36 -38 -64 -22 -51 -64 -94
-90 -94 -28 0 -63 -24 -73 -49 -5 -14 -15 -51 -21 -81 -28 -127 -153 -339
-277 -471 -36 -38 -104 -95 -150 -125 -101 -66 -131 -108 -173 -242 l-30 -92
0 -344 c0 -393 2 -408 85 -548 25 -42 45 -80 45 -83 0 -3 -580 -5 -1290 -5
-1140 0 -1290 2 -1290 15 0 8 -4 15 -10 15 -5 0 -10 -6 -10 -14 0 -12 -97 -15
-660 -16 -558 -1 -660 1 -660 13 0 29 100 417 149 578 63 207 148 446 236 660
81 197 287 625 317 656 12 13 18 23 14 23 -15 0 291 520 328 557 1 1 31 -7 66
-18 91 -29 173 -21 280 25 45 20 85 36 89 36 4 0 37 -22 72 -49 170 -128 314
-175 464 -151 86 14 143 44 226 121 35 32 70 59 78 59 8 0 29 -11 47 -25 132
-101 282 -101 413 -1 44 33 55 33 127 -4 67 -35 167 -54 236 -46 70 8 126 36
193 98 79 73 95 80 153 72 92 -12 216 26 333 103 37 24 78 43 92 43 14 0 51
-14 83 -31 56 -29 64 -31 149 -27 80 3 100 8 169 41 69 33 87 37 160 38 44 0
99 6 121 14 48 16 321 20 330 5z m2648 -1322 c12 -6 36 -24 52 -40 17 -16 59
-46 95 -65 36 -20 98 -56 139 -81 40 -25 99 -53 130 -62 76 -25 153 -69 144
-83 -4 -7 -22 -31 -40 -55 -30 -40 -43 -82 -25 -82 4 0 26 29 50 65 24 36 47
65 51 65 10 0 80 -51 157 -114 34 -28 81 -66 104 -85 23 -18 55 -56 72 -83 17
-27 56 -68 87 -91 31 -22 90 -68 131 -101 41 -32 107 -74 147 -92 63 -29 75
-39 104 -87 29 -49 41 -59 128 -103 188 -97 303 -202 350 -321 l21 -53 -1069
0 -1068 0 -27 69 c-15 37 -47 97 -71 132 -99 143 -99 143 -103 259 -2 58 -8
117 -13 132 -6 14 -33 45 -60 68 -36 31 -49 48 -49 68 0 37 9 47 52 65 42 18
56 49 35 80 -10 16 -40 29 -108 47 -93 25 -94 25 -97 57 -3 29 1 35 32 50 27
12 39 27 49 57 16 48 44 66 105 66 46 0 88 16 141 55 29 22 45 25 112 25 67 0
82 3 100 21 16 16 20 29 15 52 -19 107 -19 134 3 156 24 24 88 29 124 9z
m5887 -1353 c0 -2 -12 -29 -27 -60 l-27 -55 -91 0 -90 0 55 23 c30 13 80 39
110 59 53 35 70 43 70 33z m-13180 -430 c0 -8 4 -15 9 -15 5 0 14 7 21 15 10
12 43 15 182 15 102 0 167 -4 163 -9 -10 -17 13 -22 29 -6 13 13 89 15 613 13
l598 -3 -86 -41 c-47 -23 -164 -95 -259 -160 -168 -115 -176 -122 -335 -298
-217 -240 -376 -432 -441 -531 -28 -44 -96 -167 -149 -273 -109 -218 -98 -211
-167 -107 -53 78 -97 125 -120 125 -34 0 -18 -32 50 -104 37 -40 78 -93 91
-118 l24 -45 -82 -206 c-45 -113 -89 -239 -97 -279 -8 -40 -22 -83 -30 -95 -9
-15 -14 -51 -14 -111 0 -79 -3 -93 -26 -127 -19 -28 -24 -47 -21 -69 3 -17 9
-50 12 -73 9 -50 -8 -99 -36 -106 -14 -4 -19 -14 -19 -36 l0 -31 -99 0 c-86 0
-100 2 -105 18 -28 92 -96 560 -121 832 -23 245 -31 768 -16 1015 16 272 50
579 86 793 l6 32 169 0 c144 0 170 -2 170 -15z m3885 -12 c-18 -76 -106 -110
-142 -57 -10 15 -30 40 -45 55 l-26 29 110 0 110 0 -7 -27z m5148 11 c-5 -13
-2 -15 18 -9 13 4 28 11 33 16 6 5 47 9 92 9 93 0 84 9 100 -105 6 -39 15 -58
45 -89 l39 -39 -18 -30 c-31 -53 -107 -127 -131 -127 -37 0 -61 -18 -61 -48
-1 -15 -6 -37 -13 -48 -14 -26 -127 -119 -144 -120 -29 -2 -33 -5 -48 -33 -8
-16 -31 -39 -52 -52 -21 -12 -58 -39 -83 -59 -66 -54 -126 -90 -184 -110 -28
-9 -84 -34 -124 -54 -83 -42 -146 -67 -218 -89 -46 -13 -54 -13 -83 0 -28 14
-35 14 -77 -2 -24 -9 -59 -29 -76 -43 -64 -54 -182 -121 -222 -127 -26 -4 -57
-1 -86 9 -64 22 -113 20 -168 -9 -95 -50 -100 -62 -46 -111 44 -41 42 -66 -8
-78 -61 -15 -65 -10 -72 111 -4 59 -13 123 -21 141 -9 20 -15 65 -15 115 0 85
-15 127 -45 127 -29 0 -39 175 -15 274 14 63 14 63 -41 291 -14 55 -77 144
-127 178 -40 27 -42 31 -42 78 l0 49 950 0 c870 0 949 -1 943 -16z m1397 1 c0
-8 4 -15 9 -15 5 0 14 7 21 15 10 12 47 15 211 15 153 0 199 -3 199 -12 0 -19
70 -72 81 -61 5 5 2 20 -6 37 -8 16 -15 30 -15 32 0 2 447 4 993 4 705 0 996
-3 1004 -11 8 -8 17 -8 31 0 22 11 152 16 152 5 0 -11 -100 -171 -145 -233
-25 -34 -75 -95 -111 -137 -36 -41 -64 -77 -62 -79 8 -8 80 17 160 56 45 21
83 37 86 34 7 -7 -67 -123 -128 -199 -31 -39 -102 -120 -159 -181 -70 -76 -97
-111 -86 -113 53 -11 257 80 366 164 32 25 59 41 59 35 0 -5 -57 -87 -127
-183 -69 -95 -139 -191 -155 -212 -15 -22 -27 -41 -25 -43 2 -2 38 12 80 32
44 19 77 30 77 23 0 -24 -110 -157 -132 -160 -16 -2 -22 -9 -21 -24 2 -21
-147 -175 -282 -291 -33 -29 -56 -55 -52 -59 4 -4 66 3 138 15 73 12 134 19
137 17 2 -3 -21 -36 -52 -74 -31 -38 -56 -72 -56 -74 0 -13 86 -17 155 -7 42
6 78 9 81 6 11 -11 -60 -102 -155 -200 -52 -53 -92 -99 -90 -101 2 -3 26 0 52
6 54 11 63 8 49 -19 -16 -28 -187 -230 -291 -342 -51 -56 -87 -101 -80 -101 8
0 53 11 102 24 48 14 87 20 87 15 0 -6 -18 -37 -41 -70 -22 -33 -38 -63 -35
-66 3 -3 51 22 108 55 56 34 104 59 106 57 2 -2 -5 -16 -17 -31 -44 -56 -20
-54 70 7 50 33 93 58 96 55 9 -8 -69 -143 -123 -214 l-51 -67 -268 -3 -269 -2
-28 27 c-15 15 -28 30 -28 35 0 4 36 8 80 8 44 0 80 3 80 7 0 4 -51 59 -112
122 l-113 115 75 9 c41 4 77 10 79 13 2 2 -9 14 -25 26 -49 38 -135 121 -146
141 -9 18 -7 19 33 12 l42 -7 -36 44 c-38 47 -87 142 -87 170 0 15 4 16 26 8
20 -8 25 -7 22 2 -3 7 -25 66 -49 131 -24 64 -46 117 -50 117 -5 0 -89 -266
-89 -284 0 -4 9 -2 20 4 11 6 20 7 20 2 0 -24 -36 -125 -66 -184 -36 -71 -36
-75 -2 -57 11 6 22 8 25 5 3 -3 -31 -56 -77 -117 -76 -105 -98 -139 -88 -139
2 0 32 11 66 24 34 14 62 20 62 14 0 -5 -37 -63 -81 -129 l-82 -119 -1474 0
-1473 0 -9 23 c-6 14 -4 92 5 198 7 96 14 207 14 247 0 58 4 76 20 92 26 26
25 44 -4 58 -17 8 -25 21 -29 56 -15 111 -91 198 -230 265 -93 46 -254 91
-326 92 -91 1 -88 9 37 88 179 115 496 335 602 419 52 42 194 174 315 294 229
226 255 245 304 219 30 -17 46 -55 60 -145 7 -43 17 -91 23 -107 10 -28 13
-29 71 -29 38 0 77 7 102 19 57 26 146 102 175 150 18 29 31 41 48 41 21 0 23
4 18 25 -6 25 32 116 54 130 6 4 24 -5 41 -19 69 -58 128 -23 144 86 10 65 1
86 -40 94 -33 6 -51 22 -112 103 -13 16 -23 36 -23 45 0 8 24 31 53 49 29 19
84 70 122 115 l70 81 148 0 c124 1 147 -1 147 -14z m-730 -315 c58 -49 160
-156 160 -168 0 -6 -23 -33 -51 -60 -35 -35 -56 -48 -70 -45 -14 4 -19 0 -19
-16 0 -14 -20 -37 -61 -69 -93 -72 -90 -73 -148 18 -32 49 -70 92 -100 114
-27 20 -54 42 -60 50 -20 24 4 53 67 83 31 15 80 48 107 73 87 81 100 83 175
20z m-6955 -302 c7 -44 33 -366 40 -503 3 -60 8 -126 11 -145 5 -31 4 -33 -9
-20 -22 22 -387 640 -387 654 0 6 87 32 130 39 14 2 66 5 117 6 l92 1 6 -32z
m254 2 c85 -16 161 -36 168 -43 14 -14 247 -1621 241 -1662 -2 -14 -25 16 -71
93 -46 78 -66 120 -62 133 5 14 1 19 -12 19 -22 1 -366 570 -394 653 -10 29
-19 75 -19 102 0 28 -14 201 -29 385 -16 184 -27 338 -24 343 7 12 41 8 202
-23z m5986 -198 c-188 -186 -263 -253 -410 -363 -373 -280 -619 -448 -643
-437 -4 2 -38 35 -75 75 -97 104 -93 135 24 191 51 24 81 32 125 32 33 1 77 8
99 16 22 8 66 25 99 36 51 18 61 25 74 59 14 36 26 44 221 145 113 59 230 120
259 137 53 29 216 160 322 258 59 54 96 78 120 78 8 0 -88 -102 -215 -227z
m-6590 93 c148 -247 406 -687 424 -722 11 -23 26 -64 31 -90 19 -90 121 -1008
117 -1045 -3 -20 0 -41 5 -46 6 -6 8 -16 6 -23 -2 -7 -18 12 -35 42 -17 29
-171 306 -343 614 -172 308 -384 688 -472 844 -87 157 -157 290 -154 297 16
42 318 208 365 201 8 -1 33 -33 56 -72z m982 -16 c76 -34 144 -67 152 -73 11
-9 12 -142 6 -831 -4 -486 -11 -827 -17 -838 -15 -29 -32 -14 -40 34 -19 107
-180 1167 -212 1389 -46 320 -52 380 -38 380 7 0 74 -28 149 -61z m3103 -121
c0 -85 -9 -148 -21 -148 -8 0 -172 113 -259 179 l-35 26 35 6 c19 4 90 7 158
8 l122 1 0 -72z m-2782 -56 c115 -78 237 -176 257 -206 14 -20 15 -74 13 -417
l-3 -394 -125 -239 c-120 -229 -127 -239 -167 -257 -22 -11 -55 -22 -72 -25
l-31 -7 0 792 c0 435 3 798 7 806 7 21 16 17 121 -53z m-1718 -63 c28 -50 64
-114 80 -143 15 -28 213 -382 440 -786 226 -404 416 -743 421 -752 9 -16 4
-18 -40 -18 l-50 0 -539 663 c-687 845 -664 816 -655 832 13 23 274 295 283
295 5 0 32 -41 60 -91z m4080 -205 c115 -65 117 -67 154 -134 23 -44 34 -74
29 -86 -5 -13 -3 -16 10 -11 26 10 40 -28 47 -127 l7 -90 47 -43 c47 -43 55
-46 127 -58 28 -4 51 -21 103 -74 l66 -69 0 -71 c0 -69 -1 -71 -25 -71 -15 0
-38 -12 -52 -26 l-27 -27 27 -14 c34 -17 34 -23 0 -55 -20 -17 -117 -55 -328
-127 -165 -56 -306 -101 -312 -101 -7 0 -13 11 -13 24 0 16 -13 35 -36 54
l-36 30 44 29 c25 17 44 38 46 51 3 20 -1 22 -40 22 -24 0 -90 -9 -148 -20
-58 -11 -123 -20 -146 -20 l-41 0 10 58 c5 31 14 63 19 69 6 7 62 29 127 48
164 51 283 95 302 112 9 8 29 41 44 75 23 50 26 69 21 109 -5 39 -4 49 8 49 8
0 28 12 45 26 21 17 37 23 51 19 18 -6 20 -2 20 35 0 34 -3 41 -16 36 -9 -3
-21 -6 -27 -6 -6 0 -30 -21 -54 -46 -28 -31 -44 -42 -47 -33 -3 8 -17 50 -32
94 -19 57 -28 112 -33 190 -7 96 -12 118 -39 172 -34 66 -36 73 -25 73 4 0 59
-30 123 -66z m-1927 -102 c48 -48 87 -95 87 -105 0 -31 -182 -369 -191 -355
-18 27 -7 569 10 553 3 -3 45 -45 94 -93z m-2287 -252 c282 -341 252 -306 339
-410 74 -89 277 -334 478 -577 64 -78 117 -144 117 -147 0 -3 -81 -6 -181 -6
l-181 0 -142 49 c-77 27 -149 52 -158 56 -9 4 -98 94 -198 201 -646 696 -594
636 -586 669 4 16 14 25 25 25 10 0 21 7 25 15 3 9 0 15 -10 15 -11 0 0 29 40
108 67 129 173 295 186 290 5 -2 116 -131 246 -288z m2507 11 c42 -55 77 -106
77 -116 0 -9 -11 -31 -25 -49 -28 -37 -31 -49 -12 -65 10 -8 21 -2 47 24 19
19 37 35 40 35 4 0 15 -16 26 -35 l18 -34 -34 -48 c-18 -26 -103 -147 -187
-268 -85 -121 -164 -227 -176 -237 -12 -9 -38 -19 -58 -23 l-36 -7 -6 93 c-4
51 -7 162 -7 248 l0 156 106 190 c120 216 132 235 142 235 4 -1 42 -45 85 -99z
m3246 25 c22 -47 25 -109 7 -144 -23 -45 -20 -59 19 -96 29 -28 34 -37 27 -57
-12 -32 -85 -69 -138 -69 l-42 0 -4 188 c-2 105 1 193 6 200 6 8 27 12 60 10
45 -3 52 -6 65 -32z m-4529 -364 c107 -175 140 -236 131 -245 -17 -17 -13 -27
10 -24 17 2 37 -23 106 -133 90 -143 107 -176 118 -227 l6 -32 -84 -39 c-46
-22 -102 -56 -124 -76 -40 -36 -41 -36 -127 -36 -60 0 -88 4 -91 13 -5 13
-115 1011 -115 1042 0 17 2 17 13 5 8 -8 78 -120 157 -248z m5060 164 c77 -14
188 -54 288 -105 93 -47 150 -117 166 -202 6 -32 3 -39 -19 -53 -32 -21 -32
-44 0 -52 l25 -6 0 -197 c0 -228 -6 -250 -85 -319 -40 -35 -55 -42 -90 -42
-37 0 -52 8 -116 60 -173 142 -176 145 -242 365 -25 83 -68 226 -96 318 -28
92 -51 186 -51 207 l0 40 73 0 c39 -1 106 -7 147 -14z m-6734 -164 c43 -49
193 -213 332 -366 140 -153 252 -279 250 -282 -3 -2 -66 17 -141 42 -112 37
-137 49 -137 65 0 16 -3 17 -23 8 -20 -9 -55 1 -215 60 -105 39 -216 83 -247
96 -55 25 -56 26 -49 58 22 101 130 407 143 407 5 0 44 -40 87 -88z m6344
-199 c8 -35 9 -66 4 -79 -8 -20 -284 -264 -298 -264 -3 0 -6 58 -6 129 0 108
3 132 18 150 18 22 224 120 254 121 12 0 20 -15 28 -57z m-3757 -130 c5 -107
4 -133 -8 -143 -23 -19 -195 -60 -195 -46 0 13 117 256 156 322 26 45 28 46
34 23 4 -13 10 -83 13 -156z m-2478 -209 c187 -64 389 -133 449 -153 101 -34
186 -85 186 -112 0 -5 -121 -9 -305 -9 -264 0 -305 2 -305 15 0 8 -4 15 -9 15
-5 0 -14 -7 -21 -15 -10 -12 -48 -15 -221 -15 -234 0 -221 -5 -197 75 6 22 11
46 9 53 -2 14 24 165 40 225 5 20 15 37 22 37 7 0 165 -52 352 -116z m4310 32
c18 -13 17 -14 -9 -31 -32 -21 -39 -16 -30 19 7 30 13 31 39 12z m2052 -43
c15 -22 18 -48 17 -140 0 -62 -3 -115 -6 -118 -3 -3 -80 -4 -171 -3 l-166 3
122 131 c153 165 172 176 204 127z m-1162 -55 c14 -88 25 -165 25 -185 l0 -23
-337 0 c-185 0 -334 2 -332 5 8 7 613 234 626 235 7 0 15 -15 18 -32z m-1830
-101 c0 -15 -4 -28 -9 -29 -14 -5 -30 28 -23 46 10 26 32 14 32 -17z m-2606
-103 c3 -3 -9 -4 -28 -2 -19 2 -36 8 -38 15 -3 9 4 10 28 3 17 -5 34 -12 38
-16z"/>
<path d="M10834 15033 c12 -68 27 -102 53 -123 14 -11 28 -19 30 -17 4 5 -31
107 -51 145 -23 45 -40 41 -32 -5z"/>
<path d="M10702 14968 c-15 -15 -15 -28 -1 -28 6 0 17 -7 25 -15 19 -19 25
-19 50 0 19 15 19 15 -5 35 -26 23 -51 26 -69 8z"/>
<path d="M11150 14946 c0 -20 35 -56 55 -56 9 0 6 40 -5 61 -16 28 -50 25 -50
-5z"/>
<path d="M12615 14940 c-10 -11 -13 -20 -8 -20 13 0 38 29 31 35 -3 3 -13 -4
-23 -15z"/>
<path d="M12505 14900 c-3 -6 5 -10 19 -10 14 0 28 5 31 10 3 6 -5 10 -19 10
-14 0 -28 -4 -31 -10z"/>
<path d="M8913 14819 c-18 -16 -33 -39 -33 -49 0 -17 6 -18 48 -13 37 4 51 2
61 -11 22 -27 42 -21 31 9 -10 26 -61 95 -70 95 -3 0 -20 -14 -37 -31z"/>
<path d="M10667 14784 c-9 -9 4 -35 14 -28 5 3 9 12 9 20 0 14 -12 19 -23 8z"/>
<path d="M7330 14713 c0 -13 95 -83 113 -83 16 0 27 20 27 50 0 13 -11 19 -42
23 -24 4 -55 9 -70 13 -16 3 -28 2 -28 -3z"/>
<path d="M7220 14645 c0 -21 28 -31 43 -16 9 9 8 14 -3 21 -22 14 -40 12 -40
-5z"/>
<path d="M13313 14624 c-45 -27 -53 -44 -28 -64 12 -10 20 -9 42 5 54 34 74
57 62 72 -16 18 -28 16 -76 -13z"/>
<path d="M10725 14589 c-4 -6 -5 -13 -2 -16 7 -7 27 6 27 18 0 12 -17 12 -25
-2z"/>
<path d="M7307 14583 c-12 -11 -8 -23 8 -23 8 0 15 7 15 15 0 16 -12 20 -23 8z"/>
<path d="M7434 14514 c-9 -46 9 -104 41 -134 22 -20 25 -21 31 -6 4 9 3 40 0
68 -13 99 -58 144 -72 72z"/>
<path d="M12715 14500 c-3 -5 3 -10 14 -10 11 0 23 5 26 10 3 6 -3 10 -14 10
-11 0 -23 -4 -26 -10z"/>
<path d="M7307 14484 c-8 -8 1 -24 14 -24 5 0 9 7 9 15 0 15 -12 20 -23 9z"/>
<path d="M9484 14454 c5 -10 19 -46 31 -79 48 -123 93 -193 129 -201 27 -6 28
-8 12 -19 -10 -8 -40 -19 -67 -25 -35 -9 -49 -17 -49 -29 0 -39 52 -58 143
-53 22 2 29 8 33 31 9 43 91 71 111 37 15 -25 50 -37 78 -26 15 6 31 8 35 5
10 -6 90 32 125 59 18 13 15 15 -48 15 -90 0 -177 18 -204 43 -16 15 -30 19
-51 15 -24 -5 -35 0 -59 26 -17 18 -43 54 -58 80 -27 48 -55 73 -129 117 -37
22 -39 22 -32 4z"/>
<path d="M12502 14458 c6 -18 28 -21 28 -4 0 9 -7 16 -16 16 -9 0 -14 -5 -12
-12z"/>
<path d="M12849 14414 c-12 -14 -11 -16 5 -13 11 2 21 10 24 17 5 17 -13 15
-29 -4z"/>
<path d="M12294 14395 c-25 -25 -31 -73 -9 -78 13 -3 55 62 55 84 0 26 -16 24
-46 -6z"/>
<path d="M7880 14314 c0 -17 22 -14 28 4 2 7 -3 12 -12 12 -9 0 -16 -7 -16
-16z"/>
<path d="M7970 14235 c-10 -12 -10 -15 3 -15 19 0 31 16 18 24 -5 3 -14 -1
-21 -9z"/>
<path d="M9170 14224 c0 -17 22 -14 28 4 2 7 -3 12 -12 12 -9 0 -16 -7 -16
-16z"/>
<path d="M7219 14144 c-12 -14 -11 -16 5 -13 11 2 21 10 24 17 5 17 -13 15
-29 -4z"/>
<path d="M7477 14123 c-11 -18 1 -151 17 -182 36 -68 66 -8 45 88 -11 53 -51
113 -62 94z"/>
<path d="M10350 14115 c0 -8 5 -15 10 -15 6 0 10 7 10 15 0 8 -4 15 -10 15 -5
0 -10 -7 -10 -15z"/>
<path d="M7855 14000 c-3 -5 3 -10 14 -10 11 0 23 5 26 10 3 6 -3 10 -14 10
-11 0 -23 -4 -26 -10z"/>
<path d="M8025 14000 c-4 -7 -3 -16 3 -22 13 -13 54 0 49 15 -5 16 -43 21 -52
7z"/>
<path d="M12072 13898 l-11 -43 20 24 c19 24 26 61 10 61 -5 0 -13 -19 -19
-42z"/>
<path d="M7892 13918 c-9 -9 -7 -14 6 -24 16 -11 15 -15 -5 -52 -13 -21 -20
-42 -16 -46 13 -13 33 -5 33 13 0 32 19 35 41 7 21 -26 62 -35 74 -16 11 18
-5 69 -32 100 -26 32 -78 41 -101 18z"/>
<path d="M7734 13889 c-3 -6 -1 -15 6 -19 8 -5 10 -17 6 -35 -6 -25 -5 -26 31
-23 37 3 38 4 41 46 l3 42 -40 0 c-22 0 -43 -5 -47 -11z"/>
<path d="M8050 13846 c0 -30 4 -57 9 -60 16 -11 59 12 66 35 9 27 -23 73 -54
77 -19 3 -21 -1 -21 -52z"/>
<path d="M8425 13889 c-4 -6 -5 -13 -2 -16 7 -7 27 6 27 18 0 12 -17 12 -25
-2z"/>
<path d="M7535 13829 c-4 -6 -5 -13 -2 -16 7 -7 27 6 27 18 0 12 -17 12 -25
-2z"/>
<path d="M8165 13831 c-10 -17 12 -21 25 -6 10 12 10 15 -3 15 -9 0 -18 -4
-22 -9z"/>
<path d="M12015 13810 c-7 -12 2 -30 16 -30 12 0 12 27 0 35 -5 3 -12 1 -16
-5z"/>
<path d="M12863 13803 c-4 -9 -1 -19 5 -21 16 -5 15 -23 0 -21 -28 3 -47 -2
-63 -17 -15 -15 -15 -19 -1 -32 13 -13 16 -13 31 2 9 9 32 16 51 16 31 0 34 3
34 28 0 16 -8 36 -18 45 -23 21 -31 21 -39 0z"/>
<path d="M7507 13753 c-12 -11 -8 -23 8 -23 8 0 15 7 15 15 0 16 -12 20 -23 8z"/>
<path d="M8810 13730 c-8 -5 -12 -11 -9 -14 7 -8 49 5 49 15 0 12 -21 11 -40
-1z"/>
<path d="M10851 13722 c-54 -27 -51 -42 8 -42 61 0 96 13 111 40 10 19 8 20
-37 20 -26 0 -63 -8 -82 -18z"/>
<path d="M7590 13625 c0 -9 6 -12 15 -9 8 4 15 10 15 15 0 5 -7 9 -15 9 -8 0
-15 -7 -15 -15z"/>
<path d="M7877 13613 c-14 -13 -6 -33 13 -33 13 0 20 7 20 20 0 19 -20 27 -33
13z"/>
<path d="M8085 13549 c-4 -6 -5 -13 -2 -16 7 -7 27 6 27 18 0 12 -17 12 -25
-2z"/>
<path d="M8611 13514 c-15 -34 -9 -39 31 -28 23 7 34 17 36 32 3 18 -1 22 -26
22 -21 0 -32 -7 -41 -26z"/>
<path d="M7960 13489 c0 -46 14 -79 34 -79 26 0 26 32 1 76 -14 24 -28 44 -30
44 -3 0 -5 -18 -5 -41z"/>
<path d="M10050 13515 c-20 -24 -6 -28 15 -5 10 11 13 20 8 20 -6 0 -16 -7
-23 -15z"/>
<path d="M11870 13465 c0 -9 6 -12 15 -9 8 4 15 10 15 15 0 5 -7 9 -15 9 -8 0
-15 -7 -15 -15z"/>
<path d="M7871 13431 c-6 -21 -11 -41 -11 -43 0 -4 44 -4 72 1 13 2 -14 61
-32 71 -14 8 -19 3 -29 -29z"/>
<path d="M8663 13423 c-18 -7 -16 -23 2 -23 8 0 15 7 15 15 0 8 -1 15 -2 14
-2 0 -9 -3 -15 -6z"/>
<path d="M11843 13399 c-14 -14 -6 -39 12 -39 15 0 24 19 17 38 -5 15 -15 15
-29 1z"/>
<path d="M7842 12943 c-7 -21 -15 -46 -19 -55 -7 -23 22 -35 42 -18 21 18 18
110 -4 110 -3 0 -12 -17 -19 -37z"/>
<path d="M7574 12818 c2 -117 5 -150 21 -183 l19 -40 6 97 c3 53 8 100 12 104
4 4 3 13 -3 20 -6 8 -12 42 -13 76 -1 56 -3 63 -22 66 -21 3 -21 1 -20 -140z"/>
<path d="M7190 12886 c0 -42 2 -46 25 -46 48 0 45 81 -4 88 -19 3 -21 -1 -21
-42z"/>
<path d="M11585 12899 c-4 -6 -5 -13 -2 -16 7 -7 27 6 27 18 0 12 -17 12 -25
-2z"/>
<path d="M11543 12816 c-24 -22 -30 -46 -13 -46 9 0 45 59 38 65 -2 1 -13 -7
-25 -19z"/>
<path d="M7799 12804 c17 -14 37 -24 43 -21 8 2 -2 13 -22 25 -48 30 -58 28
-21 -4z"/>
<path d="M8660 12810 c0 -5 6 -10 14 -10 8 0 18 5 21 10 3 6 -3 10 -14 10 -12
0 -21 -4 -21 -10z"/>
<path d="M14025 12780 c-3 -5 1 -10 9 -10 9 0 16 5 16 10 0 6 -4 10 -9 10 -6
0 -13 -4 -16 -10z"/>
<path d="M12629 12770 c-49 -8 -139 -44 -139 -55 0 -7 28 -2 153 27 123 30
113 49 -14 28z"/>
<path d="M11500 12705 c0 -8 5 -15 10 -15 6 0 10 7 10 15 0 8 -4 15 -10 15 -5
0 -10 -7 -10 -15z"/>
<path d="M11470 12634 c0 -14 3 -14 15 -4 8 7 15 14 15 16 0 2 -7 4 -15 4 -8
0 -15 -7 -15 -16z"/>
<path d="M7305 12629 c-4 -6 -5 -13 -2 -16 7 -7 27 6 27 18 0 12 -17 12 -25
-2z"/>
<path d="M14820 12594 c0 -5 7 -19 15 -30 8 -10 15 -14 15 -8 0 5 -7 19 -15
30 -8 10 -15 14 -15 8z"/>
<path d="M10925 12580 c-3 -5 3 -10 14 -10 11 0 23 5 26 10 3 6 -3 10 -14 10
-11 0 -23 -4 -26 -10z"/>
<path d="M14945 12580 c-3 -5 1 -10 9 -10 9 0 16 5 16 10 0 6 -4 10 -9 10 -6
0 -13 -4 -16 -10z"/>
<path d="M11412 12541 c4 -13 18 -16 19 -4 0 4 -5 9 -11 12 -7 2 -11 -2 -8 -8z"/>
<path d="M5670 12465 c-10 -12 -10 -15 4 -15 9 0 16 7 16 15 0 8 -2 15 -4 15
-2 0 -9 -7 -16 -15z"/>
<path d="M11337 12374 c-43 -68 -57 -98 -57 -126 0 -43 15 -51 24 -13 3 13 15
29 26 35 12 7 20 21 20 38 0 15 12 51 25 81 41 87 24 80 -38 -15z"/>
<path d="M14430 12434 c0 -14 3 -14 15 -4 8 7 15 14 15 16 0 2 -7 4 -15 4 -8
0 -15 -7 -15 -16z"/>
<path d="M15553 12390 c-26 -10 -41 -56 -25 -72 17 -17 89 8 97 33 11 34 -30
55 -72 39z"/>
<path d="M6495 12329 c-10 -15 3 -25 16 -12 7 7 7 13 1 17 -6 3 -14 1 -17 -5z"/>
<path d="M5047 12313 c-14 -23 -17 -76 -7 -112 13 -48 55 -84 71 -60 13 19 0
118 -19 152 -16 26 -36 35 -45 20z"/>
<path d="M10465 12299 c-4 -6 -5 -13 -2 -16 7 -7 27 6 27 18 0 12 -17 12 -25
-2z"/>
<path d="M13618 12273 c-10 -2 -18 -9 -18 -14 0 -13 13 -11 36 6 19 14 14 17
-18 8z"/>
<path d="M6145 12240 c-3 -5 1 -10 9 -10 9 0 16 5 16 10 0 6 -4 10 -9 10 -6 0
-13 -4 -16 -10z"/>
<path d="M6485 12241 c-10 -17 12 -21 25 -6 10 12 10 15 -3 15 -9 0 -18 -4
-22 -9z"/>
<path d="M6290 12195 c0 -8 5 -15 10 -15 6 0 10 7 10 15 0 8 -4 15 -10 15 -5
0 -10 -7 -10 -15z"/>
<path d="M15280 12165 c0 -8 5 -15 10 -15 6 0 10 7 10 15 0 8 -4 15 -10 15 -5
0 -10 -7 -10 -15z"/>
<path d="M6235 12159 c-10 -15 3 -25 16 -12 7 7 7 13 1 17 -6 3 -14 1 -17 -5z"/>
<path d="M14255 12150 c-3 -5 1 -10 9 -10 9 0 16 5 16 10 0 6 -4 10 -9 10 -6
0 -13 -4 -16 -10z"/>
<path d="M12580 12121 c-15 -30 -12 -49 10 -61 17 -9 21 -8 26 7 3 10 9 28 14
40 5 11 6 24 3 27 -13 13 -43 5 -53 -13z"/>
<path d="M3426 12115 c-3 -9 1 -18 9 -21 18 -7 47 14 39 27 -9 15 -41 10 -48
-6z"/>
<path d="M6770 12098 c-20 -19 -22 -23 -8 -26 9 -2 26 2 37 7 11 6 32 11 46
11 39 0 25 24 -16 28 -25 2 -41 -3 -59 -20z"/>
<path d="M5975 12099 c-4 -6 -5 -13 -2 -16 7 -7 27 6 27 18 0 12 -17 12 -25
-2z"/>
<path d="M13975 12099 c-10 -15 3 -25 16 -12 7 7 7 13 1 17 -6 3 -14 1 -17 -5z"/>
<path d="M6130 12081 c-15 -28 -13 -31 18 -31 15 0 33 -5 40 -12 6 -6 15 -9
19 -5 7 8 -45 67 -59 67 -4 0 -12 -9 -18 -19z"/>
<path d="M4115 12069 c-4 -6 -5 -13 -2 -16 7 -7 27 6 27 18 0 12 -17 12 -25
-2z"/>
<path d="M4205 12069 c-4 -6 -5 -13 -2 -16 7 -7 27 6 27 18 0 12 -17 12 -25
-2z"/>
<path d="M4460 12050 c-8 -5 -12 -12 -9 -15 4 -3 12 1 19 10 14 17 11 19 -10
5z"/>
<path d="M4745 12039 c-4 -6 -5 -13 -2 -16 7 -7 27 6 27 18 0 12 -17 12 -25
-2z"/>
<path d="M4177 12013 c-12 -12 -7 -22 8 -17 8 4 15 10 15 15 0 11 -14 12 -23
2z"/>
<path d="M6300 12010 c-12 -8 -11 -10 7 -10 12 0 25 5 28 10 8 13 -15 13 -35
0z"/>
<path d="M5970 11980 c0 -5 4 -10 9 -10 6 0 13 5 16 10 3 6 -1 10 -9 10 -9 0
-16 -4 -16 -10z"/>
<path d="M6025 11980 c-3 -5 1 -10 9 -10 8 0 18 5 21 10 3 6 -1 10 -9 10 -8 0
-18 -4 -21 -10z"/>
<path d="M6460 11980 c0 -5 4 -10 9 -10 6 0 13 5 16 10 3 6 -1 10 -9 10 -9 0
-16 -4 -16 -10z"/>
<path d="M14095 11980 c-3 -5 4 -23 16 -39 21 -28 22 -28 40 -10 10 10 19 28
19 39 0 16 -7 20 -34 20 -19 0 -38 -4 -41 -10z"/>
<path d="M15735 11980 c-3 -5 1 -10 9 -10 9 0 16 5 16 10 0 6 -4 10 -9 10 -6
0 -13 -4 -16 -10z"/>
<path d="M3710 11950 c0 -5 4 -10 9 -10 6 0 13 5 16 10 3 6 -1 10 -9 10 -9 0
-16 -4 -16 -10z"/>
<path d="M4775 11928 c10 -44 13 -48 36 -48 25 0 24 21 -2 54 -28 36 -42 33
-34 -6z"/>
<path d="M13940 11950 c0 -5 4 -10 9 -10 6 0 13 5 16 10 3 6 -1 10 -9 10 -9 0
-16 -4 -16 -10z"/>
<path d="M14030 11925 c-10 -12 -10 -15 4 -15 9 0 16 7 16 15 0 8 -2 15 -4 15
-2 0 -9 -7 -16 -15z"/>
<path d="M4375 11920 c-3 -5 3 -10 14 -10 11 0 23 5 26 10 3 6 -3 10 -14 10
-11 0 -23 -4 -26 -10z"/>
<path d="M14223 11889 c-26 -33 -31 -45 -23 -60 7 -12 21 -19 38 -19 15 0 44
-9 65 -19 36 -18 37 -18 37 0 0 12 -14 25 -37 36 -47 23 -62 46 -45 73 29 47
5 39 -35 -11z"/>
<path d="M14454 11896 c-10 -26 11 -63 46 -81 40 -21 114 -17 118 6 2 13 -10
18 -60 25 -50 7 -65 14 -74 32 -16 33 -23 37 -30 18z"/>
<path d="M12530 11872 c0 -4 13 -16 29 -25 17 -10 65 -44 108 -75 43 -32 95
-67 115 -78 184 -96 178 -94 226 -83 48 11 58 8 49 -15 -6 -15 -119 -96 -135
-96 -5 0 -15 -6 -21 -14 -9 -11 -5 -19 21 -41 28 -24 37 -26 78 -20 25 3 62 9
82 12 21 3 42 11 49 19 6 8 19 14 29 14 20 0 50 30 50 51 0 8 -6 21 -12 28
-11 10 -3 21 35 58 46 43 51 45 90 39 123 -20 136 -20 175 7 20 14 50 29 65
33 25 6 146 126 156 155 1 6 -14 2 -35 -7 -61 -27 -180 -60 -287 -80 -80 -14
-104 -16 -131 -6 -44 16 -67 15 -94 -4 -13 -9 -29 -13 -36 -11 -8 3 -18 1 -24
-5 -15 -15 -98 14 -210 74 -88 47 -98 50 -200 59 -59 5 -122 11 -139 13 -18 3
-33 1 -33 -2z"/>
<path d="M15825 11869 c-4 -6 -5 -13 -2 -16 7 -7 27 6 27 18 0 12 -17 12 -25
-2z"/>
<path d="M4320 11850 c0 -13 7 -20 19 -20 30 0 33 16 6 28 -22 10 -25 9 -25
-8z"/>
<path d="M3365 11839 c-4 -6 -5 -13 -2 -16 7 -7 27 6 27 18 0 12 -17 12 -25
-2z"/>
<path d="M15050 11825 c0 -8 5 -15 10 -15 6 0 10 7 10 15 0 8 -4 15 -10 15 -5
0 -10 -7 -10 -15z"/>
<path d="M3257 11813 c-12 -12 -7 -22 8 -17 8 4 15 10 15 15 0 11 -14 12 -23
2z"/>
<path d="M4407 11813 c-12 -12 -7 -22 8 -17 8 4 15 10 15 15 0 11 -14 12 -23
2z"/>
<path d="M4637 11813 c-12 -12 -7 -22 8 -17 8 4 15 10 15 15 0 11 -14 12 -23
2z"/>
<path d="M3395 11780 c-3 -5 1 -10 9 -10 9 0 16 5 16 10 0 6 -4 10 -9 10 -6 0
-13 -4 -16 -10z"/>
<path d="M15910 11765 c0 -20 28 -31 43 -16 13 13 10 16 -20 25 -17 6 -23 3
-23 -9z"/>
<path d="M6142 11739 c2 -6 8 -10 13 -10 5 0 11 4 13 10 2 6 -4 11 -13 11 -9
0 -15 -5 -13 -11z"/>
<path d="M14460 11735 c0 -8 5 -15 10 -15 6 0 10 7 10 15 0 8 -4 15 -10 15 -5
0 -10 -7 -10 -15z"/>
<path d="M14547 11744 c-8 -8 1 -24 14 -24 5 0 9 7 9 15 0 15 -12 20 -23 9z"/>
<path d="M14860 11720 c0 -5 4 -10 9 -10 6 0 13 5 16 10 3 6 -1 10 -9 10 -9 0
-16 -4 -16 -10z"/>
<path d="M4465 11699 c-10 -15 3 -25 16 -12 7 7 7 13 1 17 -6 3 -14 1 -17 -5z"/>
<path d="M14430 11651 c0 -6 5 -13 10 -16 6 -3 10 1 10 9 0 9 -4 16 -10 16 -5
0 -10 -4 -10 -9z"/>
<path d="M4490 11635 c-8 -9 -8 -15 -2 -15 12 0 26 19 19 26 -2 2 -10 -2 -17
-11z"/>
<path d="M14345 11639 c-4 -6 -5 -13 -2 -16 7 -7 27 6 27 18 0 12 -17 12 -25
-2z"/>
<path d="M3355 11610 c-19 -8 -19 -9 2 -9 12 -1 25 4 28 9 7 12 -2 12 -30 0z"/>
<path d="M4430 11595 c0 -8 5 -15 10 -15 6 0 10 7 10 15 0 8 -4 15 -10 15 -5
0 -10 -7 -10 -15z"/>
<path d="M16026 11602 c-3 -6 -1 -14 5 -17 15 -10 25 3 12 16 -7 7 -13 7 -17
1z"/>
<path d="M5435 11581 c-6 -11 9 -23 19 -14 9 9 7 23 -3 23 -6 0 -12 -4 -16 -9z"/>
<path d="M11670 11566 c0 -2 7 -21 16 -42 19 -45 52 -84 71 -84 26 0 -12 89
-49 114 -21 15 -38 20 -38 12z"/>
<path d="M12130 11550 c0 -5 4 -10 9 -10 6 0 13 5 16 10 3 6 -1 10 -9 10 -9 0
-16 -4 -16 -10z"/>
<path d="M12560 11550 c0 -5 7 -10 15 -10 8 0 15 5 15 10 0 6 -7 10 -15 10 -8
0 -15 -4 -15 -10z"/>
<path d="M12715 11550 c-3 -5 3 -10 14 -10 11 0 23 5 26 10 3 6 -3 10 -14 10
-11 0 -23 -4 -26 -10z"/>
<path d="M14285 11550 c-3 -5 1 -10 9 -10 9 0 16 5 16 10 0 6 -4 10 -9 10 -6
0 -13 -4 -16 -10z"/>
<path d="M4126 11521 c17 -18 155 -82 187 -87 89 -16 251 -103 240 -129 -2 -8
-27 -19 -54 -26 -27 -7 -49 -18 -49 -24 0 -10 52 -55 64 -55 3 0 22 11 42 25
20 14 44 25 54 25 9 0 38 14 64 31 55 37 110 45 206 29 84 -13 220 -21 220
-12 -1 4 -41 27 -90 51 l-90 44 -88 -6 c-49 -4 -92 -3 -96 1 -4 4 -33 7 -65 7
-49 0 -66 6 -127 42 -65 40 -78 44 -194 58 -69 9 -141 20 -160 26 -46 12 -77
12 -64 0z"/>
<path d="M12620 11520 c0 -5 4 -10 9 -10 6 0 13 5 16 10 3 6 -1 10 -9 10 -9 0
-16 -4 -16 -10z"/>
<path d="M14485 11520 c-3 -5 1 -10 9 -10 9 0 16 5 16 10 0 6 -4 10 -9 10 -6
0 -13 -4 -16 -10z"/>
<path d="M14350 11500 c-8 -5 -11 -12 -7 -16 4 -4 13 -2 19 4 15 15 7 24 -12
12z"/>
<path d="M4175 11430 c-4 -6 -3 -16 3 -22 6 -6 12 -6 17 2 4 6 3 16 -3 22 -6
6 -12 6 -17 -2z"/>
<path d="M14920 11395 c0 -8 5 -15 10 -15 6 0 10 7 10 15 0 8 -4 15 -10 15 -5
0 -10 -7 -10 -15z"/>
<path d="M6200 11390 c0 -5 4 -10 9 -10 6 0 13 5 16 10 3 6 -1 10 -9 10 -9 0
-16 -4 -16 -10z"/>
<path d="M4070 11380 c-12 -8 -11 -10 7 -10 12 0 25 5 28 10 8 13 -15 13 -35
0z"/>
<path d="M5297 11383 c-12 -12 -7 -22 8 -17 8 4 15 10 15 15 0 11 -14 12 -23
2z"/>
<path d="M14471 11376 c-9 -10 -8 -16 4 -26 20 -16 45 -6 45 20 0 23 -31 28
-49 6z"/>
<path d="M14405 11358 c4 -13 10 -55 14 -95 9 -82 21 -103 62 -103 37 0 39 27
4 60 -13 12 -22 26 -20 30 2 4 36 12 75 19 45 8 70 17 67 24 -6 18 -56 20 -81
4 -39 -26 -69 -25 -83 3 -6 14 -15 37 -18 53 -3 15 -10 27 -16 27 -7 0 -9 -8
-4 -22z"/>
<path d="M12658 11333 c-28 -4 -36 -17 -18 -28 15 -9 47 3 54 20 3 8 2 14 -2
14 -4 -1 -19 -4 -34 -6z"/>
<path d="M3450 11320 c0 -5 7 -10 15 -10 8 0 15 5 15 10 0 6 -7 10 -15 10 -8
0 -15 -4 -15 -10z"/>
<path d="M4170 11320 c0 -5 4 -10 9 -10 6 0 13 5 16 10 3 6 -1 10 -9 10 -9 0
-16 -4 -16 -10z"/>
<path d="M5647 11323 c-12 -11 -8 -21 11 -26 12 -3 9 -7 -15 -17 -18 -6 -33
-16 -33 -21 0 -11 15 -11 38 0 9 5 35 13 57 18 31 6 41 13 43 31 3 20 -1 22
-46 22 -27 0 -52 -3 -55 -7z"/>
<path d="M5780 11320 c0 -5 4 -10 9 -10 6 0 13 5 16 10 3 6 -1 10 -9 10 -9 0
-16 -4 -16 -10z"/>
<path d="M13170 11295 c-10 -12 -10 -15 4 -15 9 0 16 7 16 15 0 8 -2 15 -4 15
-2 0 -9 -7 -16 -15z"/>
<path d="M14544 11235 c-10 -25 4 -45 31 -45 21 0 25 5 25 30 0 25 -4 30 -25
30 -14 0 -28 -7 -31 -15z"/>
<path d="M5755 11230 c-4 -6 -3 -16 3 -22 6 -6 12 -6 17 2 4 6 3 16 -3 22 -6
6 -12 6 -17 -2z"/>
<path d="M5297 11183 c-12 -12 -7 -22 8 -17 8 4 15 10 15 15 0 11 -14 12 -23
2z"/>
<path d="M14255 11181 c-6 -11 9 -23 19 -14 9 9 7 23 -3 23 -6 0 -12 -4 -16
-9z"/>
<path d="M5707 11163 c-13 -12 -7 -23 13 -23 11 0 29 -13 42 -30 25 -35 38
-38 38 -11 0 11 -14 31 -31 45 -31 26 -50 32 -62 19z"/>
<path d="M3317 11133 c-13 -12 -7 -41 9 -47 30 -11 84 -6 90 9 9 24 -5 36 -26
23 -15 -10 -22 -9 -38 5 -21 19 -25 20 -35 10z"/>
<path d="M4115 11120 c-3 -5 1 -10 9 -10 9 0 16 5 16 10 0 6 -4 10 -9 10 -6 0
-13 -4 -16 -10z"/>
<path d="M12420 11090 c0 -16 5 -30 10 -30 6 0 10 14 10 30 0 17 -4 30 -10 30
-5 0 -10 -13 -10 -30z"/>
<path d="M4400 11090 c0 -5 4 -10 9 -10 6 0 13 5 16 10 3 6 -1 10 -9 10 -9 0
-16 -4 -16 -10z"/>
<path d="M14860 11090 c0 -5 4 -10 9 -10 6 0 13 5 16 10 3 6 -1 10 -9 10 -9 0
-16 -4 -16 -10z"/>
<path d="M5290 11065 c0 -20 33 -75 59 -99 30 -29 31 -29 31 -7 0 32 -25 75
-54 95 -26 17 -36 20 -36 11z"/>
<path d="M13584 11039 c-3 -6 -1 -15 7 -19 14 -9 49 5 49 20 0 14 -47 13 -56
-1z"/>
<path d="M14550 11040 c-8 -5 -11 -12 -7 -16 4 -4 13 -2 19 4 15 15 7 24 -12
12z"/>
<path d="M4145 11030 c-4 -6 -3 -16 3 -22 6 -6 12 -6 17 2 4 6 3 16 -3 22 -6
6 -12 6 -17 -2z"/>
<path d="M13140 11020 c0 -23 22 -27 39 -7 13 16 5 27 -21 27 -11 0 -18 -7
-18 -20z"/>
<path d="M4237 11013 c-12 -12 -7 -22 8 -17 8 4 15 10 15 15 0 11 -14 12 -23
2z"/>
<path d="M13007 11014 c-10 -11 3 -24 22 -24 10 0 24 7 31 15 11 13 8 15 -17
15 -16 0 -33 -3 -36 -6z"/>
<path d="M5452 10998 c-18 -18 -14 -38 7 -38 10 0 27 -12 37 -27 l18 -28 7 25
c4 14 7 34 8 45 0 18 0 19 -10 3 -14 -26 -29 -22 -29 7 0 27 -18 33 -38 13z"/>
<path d="M5697 10995 c-7 -16 1 -25 24 -25 28 0 31 16 5 28 -19 8 -25 8 -29
-3z"/>
<path d="M4055 10979 c-4 -6 -5 -13 -2 -16 7 -7 27 6 27 18 0 12 -17 12 -25
-2z"/>
<path d="M13310 10974 c0 -14 3 -14 15 -4 8 7 15 14 15 16 0 2 -7 4 -15 4 -8
0 -15 -7 -15 -16z"/>
<path d="M3225 10949 c-4 -6 -5 -13 -2 -16 7 -7 27 6 27 18 0 12 -17 12 -25
-2z"/>
<path d="M4000 10944 c0 -14 3 -14 15 -4 8 7 15 14 15 16 0 2 -7 4 -15 4 -8 0
-15 -7 -15 -16z"/>
<path d="M4210 10950 c-12 -8 -11 -10 7 -10 12 0 25 5 28 10 8 13 -15 13 -35
0z"/>
<path d="M14470 10950 c-12 -8 -11 -10 7 -10 12 0 25 5 28 10 8 13 -15 13 -35
0z"/>
<path d="M14541 10938 c-22 -58 -23 -68 -7 -68 17 0 40 31 51 68 5 18 2 22
-15 22 -12 0 -24 -9 -29 -22z"/>
<path d="M6273 10878 c-9 -60 -8 -79 4 -105 28 -60 53 -38 53 45 0 40 -30 132
-43 132 -2 0 -9 -33 -14 -72z"/>
<path d="M3740 10914 c0 -14 3 -14 15 -4 8 7 15 14 15 16 0 2 -7 4 -15 4 -8 0
-15 -7 -15 -16z"/>
<path d="M12215 10920 c-3 -5 1 -10 9 -10 9 0 16 5 16 10 0 6 -4 10 -9 10 -6
0 -13 -4 -16 -10z"/>
<path d="M3135 10890 c-3 -5 1 -10 9 -10 9 0 16 5 16 10 0 6 -4 10 -9 10 -6 0
-13 -4 -16 -10z"/>
<path d="M14715 10890 c-3 -5 1 -10 9 -10 9 0 16 5 16 10 0 6 -4 10 -9 10 -6
0 -13 -4 -16 -10z"/>
<path d="M14830 10875 c0 -9 5 -15 11 -13 6 2 11 8 11 13 0 5 -5 11 -11 13 -6
2 -11 -4 -11 -13z"/>
<path d="M3340 10865 c-10 -12 -10 -15 3 -15 19 0 31 16 18 24 -5 3 -14 -1
-21 -9z"/>
<path d="M3884 10863 c-3 -10 -10 -28 -15 -41 -13 -32 -13 -32 32 -32 l42 0
-6 37 c-8 49 -42 72 -53 36z"/>
<path d="M5960 10870 c-8 -5 -11 -12 -7 -16 4 -4 13 -2 19 4 15 15 7 24 -12
12z"/>
<path d="M12565 10860 c-3 -5 3 -10 14 -10 11 0 23 5 26 10 3 6 -3 10 -14 10
-11 0 -23 -4 -26 -10z"/>
<path d="M3430 10840 c-8 -5 -11 -12 -7 -16 4 -4 13 -2 19 4 15 15 7 24 -12
12z"/>
<path d="M12680 10835 c-10 -12 -10 -15 4 -15 9 0 16 7 16 15 0 8 -2 15 -4 15
-2 0 -9 -7 -16 -15z"/>
<path d="M13055 10839 c-4 -6 -5 -13 -2 -16 7 -7 27 6 27 18 0 12 -17 12 -25
-2z"/>
<path d="M3196 10822 c-8 -13 5 -53 15 -46 12 7 12 41 0 49 -5 3 -12 2 -15 -3z"/>
<path d="M12825 10809 c-4 -6 -5 -13 -2 -16 7 -7 27 6 27 18 0 12 -17 12 -25
-2z"/>
<path d="M12940 10810 c-8 -5 -11 -12 -7 -16 4 -4 13 -2 19 4 15 15 7 24 -12
12z"/>
<path d="M2965 10779 c-4 -6 -5 -13 -2 -16 7 -7 27 6 27 18 0 12 -17 12 -25
-2z"/>
<path d="M14835 10770 c-4 -6 -3 -16 3 -22 6 -6 12 -6 17 2 4 6 3 16 -3 22 -6
6 -12 6 -17 -2z"/>
<path d="M5718 10759 c-27 -15 -22 -23 22 -37 55 -17 70 -15 70 8 0 32 -57 50
-92 29z"/>
<path d="M3425 10749 c-4 -6 -5 -13 -2 -16 7 -7 27 6 27 18 0 12 -17 12 -25
-2z"/>
<path d="M12797 10753 c-12 -12 -7 -22 8 -17 8 4 15 10 15 15 0 11 -14 12 -23
2z"/>
<path d="M13027 10753 c-12 -12 -7 -22 8 -17 8 4 15 10 15 15 0 11 -14 12 -23
2z"/>
<path d="M3340 10735 c0 -19 24 -30 41 -19 9 5 7 11 -6 21 -24 17 -35 17 -35
-2z"/>
<path d="M4785 10720 c-3 -5 3 -10 14 -10 11 0 23 5 26 10 3 6 -3 10 -14 10
-11 0 -23 -4 -26 -10z"/>
<path d="M3916 10713 c-11 -11 -6 -23 9 -23 8 0 15 4 15 9 0 13 -16 22 -24 14z"/>
<path d="M5300 10703 c0 -26 31 -155 45 -190 17 -41 43 -73 58 -73 16 0 -3
111 -28 165 -25 53 -75 118 -75 98z"/>
<path d="M2952 10659 c-17 -55 -7 -62 29 -21 33 36 33 55 3 60 -15 2 -22 -7
-32 -39z"/>
<path d="M3565 10690 c-3 -5 1 -10 9 -10 8 0 18 5 21 10 3 6 -1 10 -9 10 -8 0
-18 -4 -21 -10z"/>
<path d="M12730 10682 c0 -33 24 -52 80 -62 30 -6 63 -13 73 -16 12 -4 17 0
17 14 0 29 -29 49 -96 66 -76 20 -74 20 -74 -2z"/>
<path d="M4485 10660 c-3 -5 1 -10 9 -10 8 0 18 5 21 10 3 6 -1 10 -9 10 -8 0
-18 -4 -21 -10z"/>
<path d="M15205 10660 c-3 -5 1 -10 9 -10 9 0 16 5 16 10 0 6 -4 10 -9 10 -6
0 -13 -4 -16 -10z"/>
<path d="M3685 10630 c-3 -5 3 -10 14 -10 11 0 23 5 26 10 3 6 -3 10 -14 10
-11 0 -23 -4 -26 -10z"/>
<path d="M4635 10630 c-8 -13 15 -13 35 0 12 8 11 10 -7 10 -12 0 -25 -4 -28
-10z"/>
<path d="M3144 10604 c3 -9 6 -40 6 -71 0 -66 18 -68 37 -4 15 52 3 91 -28 91
-15 0 -19 -4 -15 -16z"/>
<path d="M14965 10595 c-29 -28 -31 -43 -10 -51 14 -6 43 20 66 59 16 27 -27
22 -56 -8z"/>
<path d="M15065 10579 c-4 -6 -5 -13 -2 -16 7 -7 27 6 27 18 0 12 -17 12 -25
-2z"/>
<path d="M6006 10525 c10 -28 58 -97 83 -119 17 -15 21 -16 21 -4 0 18 -47 83
-84 118 -24 21 -26 22 -20 5z"/>
<path d="M3257 10523 c-12 -12 -7 -22 8 -17 8 4 15 10 15 15 0 11 -14 12 -23
2z"/>
<path d="M15200 10506 c0 -34 52 -50 78 -24 9 9 6 16 -16 30 -39 25 -62 23
-62 -6z"/>
<path d="M13165 10460 c-3 -5 1 -10 9 -10 9 0 16 5 16 10 0 6 -4 10 -9 10 -6
0 -13 -4 -16 -10z"/>
<path d="M15490 10445 c0 -21 5 -25 30 -25 25 0 30 4 30 25 0 21 -5 25 -30 25
-25 0 -30 -4 -30 -25z"/>
<path d="M4180 10440 c-8 -5 -11 -12 -7 -16 4 -4 13 -2 19 4 15 15 7 24 -12
12z"/>
<path d="M3890 10410 c-8 -5 -11 -12 -7 -16 4 -4 13 -2 19 4 15 15 7 24 -12
12z"/>
<path d="M12765 10409 c-4 -6 -5 -13 -2 -16 7 -7 27 6 27 18 0 12 -17 12 -25
-2z"/>
<path d="M15420 10377 c-14 -6 -26 -12 -28 -13 -2 -1 4 -14 13 -28 l18 -26 23
32 c37 49 28 60 -26 35z"/>
<path d="M5737 10322 c-25 -28 -21 -42 13 -42 34 0 49 22 30 45 -16 19 -23 19
-43 -3z"/>
<path d="M3287 10323 c-12 -12 -7 -22 8 -17 8 4 15 10 15 15 0 11 -14 12 -23
2z"/>
<path d="M3487 10323 c-12 -12 -7 -22 8 -17 8 4 15 10 15 15 0 11 -14 12 -23
2z"/>
<path d="M3855 10319 c-4 -6 -5 -13 -2 -16 7 -7 27 6 27 18 0 12 -17 12 -25
-2z"/>
<path d="M3527 10294 c-12 -13 -7 -52 7 -57 8 -3 20 1 27 9 10 12 9 19 -7 35
-11 11 -23 16 -27 13z"/>
<path d="M2935 10260 c-3 -5 1 -10 9 -10 9 0 16 5 16 10 0 6 -4 10 -9 10 -6 0
-13 -4 -16 -10z"/>
<path d="M13033 10263 c-23 -9 -15 -35 10 -31 12 2 22 9 22 17 0 16 -14 22
-32 14z"/>
<path d="M4085 10230 c-3 -5 1 -10 9 -10 9 0 16 5 16 10 0 6 -4 10 -9 10 -6 0
-13 -4 -16 -10z"/>
<path d="M10620 11101 c-16 -16 -32 -40 -36 -55 -8 -34 3 -76 20 -76 15 0 46
57 46 85 0 9 7 29 15 45 14 27 14 30 -1 30 -8 0 -28 -13 -44 -29z"/>
<path d="M10320 11060 c0 -5 4 -10 9 -10 6 0 13 5 16 10 3 6 -1 10 -9 10 -9 0
-16 -4 -16 -10z"/>
<path d="M10392 10944 c-7 -8 -32 -14 -60 -14 -61 0 -89 -8 -97 -27 -3 -9 -4
-17 -3 -18 11 -10 198 32 198 44 0 19 -25 29 -38 15z"/>
<path d="M10497 10953 c-12 -12 -7 -22 8 -17 8 4 15 10 15 15 0 11 -14 12 -23
2z"/>
<path d="M10512 10847 c-23 -30 -42 -59 -42 -65 0 -23 25 -11 47 21 13 17 30
42 39 55 11 15 14 26 7 33 -7 7 -24 -8 -51 -44z"/>
<path d="M11400 10750 c-12 -8 -11 -10 8 -10 12 0 22 5 22 10 0 13 -11 13 -30
0z"/>
<path d="M10402 10688 c-26 -33 -30 -43 -20 -55 10 -12 17 -9 45 24 32 37 39
63 18 69 -5 2 -25 -15 -43 -38z"/>
<path d="M10150 10705 c0 -19 24 -30 41 -19 9 5 7 11 -6 21 -24 17 -35 17 -35
-2z"/>
<path d="M10265 10690 c-3 -5 1 -10 9 -10 9 0 16 5 16 10 0 6 -4 10 -9 10 -6
0 -13 -4 -16 -10z"/>
<path d="M11530 10600 c0 -12 8 -12 35 0 18 8 17 9 -7 9 -16 1 -28 -3 -28 -9z"/>
<path d="M11445 10579 c-4 -6 -5 -13 -2 -16 7 -7 27 6 27 18 0 12 -17 12 -25
-2z"/>
<path d="M10465 10490 c-3 -5 1 -10 9 -10 9 0 16 5 16 10 0 6 -4 10 -9 10 -6
0 -13 -4 -16 -10z"/>
<path d="M11764 10455 c-4 -9 -4 -18 -1 -21 10 -10 48 7 44 19 -6 19 -36 20
-43 2z"/>
<path d="M11390 10440 c-8 -5 -11 -12 -7 -16 4 -4 13 -2 19 4 15 15 7 24 -12
12z"/>
<path d="M11215 10409 c-4 -6 -5 -13 -2 -16 7 -7 27 6 27 18 0 12 -17 12 -25
-2z"/>
<path d="M3107 9864 c-4 -4 -4 -10 -1 -15 6 -10 34 0 34 12 0 10 -24 12 -33 3z"/>
<path d="M3485 9860 c-3 -6 5 -10 19 -10 14 0 28 5 31 10 3 6 -5 10 -19 10
-14 0 -28 -4 -31 -10z"/>
<path d="M2887 9733 c-12 -11 -8 -23 8 -23 8 0 15 7 15 15 0 16 -12 20 -23 8z"/>
<path d="M3190 9702 c-31 -15 -62 -63 -49 -76 3 -3 34 4 70 15 49 15 69 27 77
44 6 12 8 26 5 29 -12 12 -69 6 -103 -12z"/>
<path d="M3569 9574 c-12 -14 -11 -16 5 -13 11 2 21 10 24 17 5 17 -13 15 -29
-4z"/>
<path d="M3825 9459 c-12 -19 5 -23 22 -6 16 16 16 17 1 17 -9 0 -20 -5 -23
-11z"/>
<path d="M2796 9393 c-9 -9 -7 -33 3 -33 12 0 22 28 12 34 -5 3 -11 3 -15 -1z"/>
<path d="M2592 9376 c1 -10 8 -17 13 -17 15 1 12 24 -3 29 -9 3 -13 -2 -10
-12z"/>
<path d="M2847 9363 c-4 -3 -7 -17 -7 -30 0 -19 5 -23 31 -23 37 0 65 14 79
40 10 19 7 20 -43 20 -30 0 -57 -3 -60 -7z"/>
<path d="M3045 9329 c-12 -19 5 -23 22 -6 16 16 16 17 1 17 -9 0 -20 -5 -23
-11z"/>
<path d="M3485 9289 c-4 -6 -5 -13 -2 -16 7 -7 27 6 27 18 0 12 -17 12 -25 -2z"/>
<path d="M2911 9081 c-7 -5 -12 -14 -10 -20 3 -6 9 -7 18 -2 7 5 12 14 10 20
-3 6 -9 7 -18 2z"/>
<path d="M3075 9070 c-9 -15 92 -62 128 -58 46 4 51 38 5 38 -18 1 -44 7 -58
15 -29 17 -66 19 -75 5z"/>
<path d="M3282 9047 c-9 -10 -6 -17 8 -30 41 -34 101 -10 70 28 -15 19 -64 20
-78 2z"/>
<path d="M2744 8716 c-19 -15 -19 -15 1 -35 19 -20 22 -20 43 -5 22 15 22 17
6 35 -21 23 -25 23 -50 5z"/>
<path d="M11881 9836 c-9 -10 -3 -17 32 -30 23 -9 50 -16 60 -16 20 0 23 30 5
48 -16 16 -83 15 -97 -2z"/>
<path d="M12045 9830 c-3 -6 5 -10 19 -10 14 0 28 5 31 10 3 6 -5 10 -19 10
-14 0 -28 -4 -31 -10z"/>
<path d="M10985 9779 c-4 -6 -5 -13 -2 -16 7 -7 27 6 27 18 0 12 -17 12 -25
-2z"/>
<path d="M11466 9714 c-4 -11 -1 -14 11 -12 9 2 18 9 21 16 6 18 -25 15 -32
-4z"/>
<path d="M11585 9719 c-4 -6 -5 -13 -2 -16 7 -7 27 6 27 18 0 12 -17 12 -25
-2z"/>
<path d="M11534 9568 c0 -24 -7 -58 -14 -76 -11 -23 -12 -37 -4 -49 20 -32 29
-22 53 57 19 65 21 82 11 95 -25 30 -45 18 -46 -27z"/>
<path d="M11386 9511 c-3 -4 6 -13 19 -19 25 -12 42 -1 30 18 -8 12 -42 13
-49 1z"/>
<path d="M11800 9495 c7 -9 9 -26 5 -45 -4 -19 -3 -30 4 -30 6 0 11 5 11 10 0
15 25 12 65 -7 41 -20 53 -13 37 22 -15 32 -68 65 -106 65 -24 0 -26 -2 -16
-15z"/>
<path d="M11017 9323 c-13 -12 -7 -23 11 -23 10 0 28 -7 40 -16 25 -17 52 -13
52 9 0 25 -84 50 -103 30z"/>
<path d="M10637 9093 c-12 -11 -8 -23 7 -23 8 0 16 7 20 15 5 15 -14 21 -27 8z"/>
<path d="M13111 9836 c-7 -8 -8 -17 -3 -20 6 -3 15 1 21 8 7 8 8 17 3 20 -6 3
-15 -1 -21 -8z"/>
<path d="M13975 9830 c-3 -5 3 -10 14 -10 11 0 23 5 26 10 3 6 -3 10 -14 10
-11 0 -23 -4 -26 -10z"/>
<path d="M14080 9824 c0 -17 22 -14 28 4 2 7 -3 12 -12 12 -9 0 -16 -7 -16
-16z"/>
<path d="M13540 9815 c0 -9 5 -15 11 -13 6 2 11 8 11 13 0 5 -5 11 -11 13 -6
2 -11 -4 -11 -13z"/>
<path d="M14807 9813 c-12 -11 -8 -23 8 -23 8 0 15 7 15 15 0 16 -12 20 -23 8z"/>
<path d="M13335 9779 c-10 -15 1 -23 20 -15 9 3 13 10 10 16 -8 13 -22 13 -30
-1z"/>
<path d="M13427 9783 c-12 -11 -8 -23 8 -23 8 0 15 7 15 15 0 16 -12 20 -23 8z"/>
<path d="M15065 9779 c-4 -6 -5 -13 -2 -16 7 -7 27 6 27 18 0 12 -17 12 -25
-2z"/>
<path d="M13268 9753 c-19 -5 -25 -23 -9 -23 17 0 41 12 41 21 0 9 -4 10 -32
2z"/>
<path d="M15495 9731 c-3 -5 1 -11 9 -14 8 -3 17 -19 21 -36 9 -43 38 -57 57
-29 14 21 16 21 38 5 30 -21 40 -21 40 -3 0 8 -12 17 -26 20 -14 4 -42 17 -62
30 -48 29 -70 37 -77 27z"/>
<path d="M14805 9719 c-4 -6 -5 -13 -2 -16 7 -7 27 6 27 18 0 12 -17 12 -25
-2z"/>
<path d="M14610 9690 c-8 -5 -11 -12 -8 -16 10 -9 78 5 78 16 0 13 -50 13 -70
0z"/>
<path d="M13404 9667 c-6 -17 52 -81 66 -72 6 4 0 21 -17 45 -30 42 -41 48
-49 27z"/>
<path d="M14760 9675 c0 -6 76 -127 92 -145 7 -9 33 -41 57 -73 33 -43 51 -58
77 -63 47 -9 38 -25 -24 -49 -93 -36 -55 -86 62 -80 73 4 97 16 93 47 -1 12 9
29 26 41 25 19 30 20 60 7 60 -26 147 -13 214 32 23 16 43 31 43 32 0 2 -56 1
-125 -2 -107 -4 -128 -2 -151 13 -20 13 -38 16 -73 11 l-46 -6 -85 89 c-61 64
-102 98 -147 120 -63 31 -73 35 -73 26z"/>
<path d="M13691 9641 c-7 -5 -12 -14 -10 -20 3 -6 9 -7 18 -2 7 5 12 14 10 20
-3 6 -9 7 -18 2z"/>
<path d="M14123 9613 c-18 -7 -16 -23 2 -23 8 0 15 7 15 15 0 8 -1 15 -2 14
-2 0 -9 -3 -15 -6z"/>
<path d="M13582 9584 c3 -19 55 -61 64 -52 3 3 -2 20 -11 37 -17 34 -59 45
-53 15z"/>
<path d="M13924 9545 c-18 -15 -18 -15 5 -13 14 2 26 9 29 16 5 17 -10 15 -34
-3z"/>
<path d="M13710 9484 c0 -17 22 -14 28 4 2 7 -3 12 -12 12 -9 0 -16 -7 -16
-16z"/>
<path d="M13540 9470 c0 -15 7 -20 25 -20 30 0 33 15 6 30 -27 14 -31 13 -31
-10z"/>
<path d="M13890 9440 c-10 -18 -8 -20 17 -20 15 0 41 -9 57 -19 30 -20 56 -18
56 3 0 16 -71 56 -99 56 -11 0 -25 -9 -31 -20z"/>
<path d="M14857 9378 c7 -40 9 -42 22 -33 15 8 14 38 -1 53 -20 20 -28 13 -21
-20z"/>
<path d="M13657 9353 c-12 -11 -8 -23 8 -23 8 0 15 7 15 15 0 16 -12 20 -23 8z"/>
<path d="M13825 9280 c-9 -15 3 -30 24 -30 27 0 33 11 13 26 -21 16 -29 17
-37 4z"/>
<path d="M12157 9234 c-4 -4 -4 -10 -1 -15 6 -10 34 0 34 12 0 10 -24 12 -33
3z"/>
<path d="M14800 9224 c0 -9 5 -14 12 -12 18 6 21 28 4 28 -9 0 -16 -7 -16 -16z"/>
<path d="M12105 9149 c-4 -6 -5 -13 -2 -16 7 -7 27 6 27 18 0 12 -17 12 -25
-2z"/>
<path d="M14865 9149 c-4 -6 -5 -13 -2 -16 7 -7 27 6 27 18 0 12 -17 12 -25
-2z"/>
<path d="M15065 9119 c-4 -6 -5 -13 -2 -16 7 -7 27 6 27 18 0 12 -17 12 -25
-2z"/>
<path d="M13552 8999 c2 -6 8 -10 13 -10 5 0 11 4 13 10 2 6 -4 11 -13 11 -9
0 -15 -5 -13 -11z"/>
<path d="M11901 8977 c-6 -8 -8 -17 -4 -20 7 -8 33 11 33 24 0 13 -16 11 -29
-4z"/>
<path d="M12550 8970 c0 -19 11 -26 23 -14 8 8 -3 34 -14 34 -5 0 -9 -9 -9
-20z"/>
<path d="M12077 8953 c-12 -11 -8 -23 8 -23 8 0 15 7 15 15 0 16 -12 20 -23 8z"/>
<path d="M12365 8949 c-4 -6 -5 -13 -2 -16 7 -7 27 6 27 18 0 12 -17 12 -25
-2z"/>
<path d="M12190 8920 c-8 -5 -11 -12 -8 -16 10 -9 38 3 38 16 0 12 -10 13 -30
0z"/>
<path d="M14230 8920 c-8 -5 -11 -12 -8 -16 10 -9 38 3 38 16 0 12 -10 13 -30
0z"/>
<path d="M12752 8866 c1 -10 8 -17 13 -17 15 1 12 24 -3 29 -9 3 -13 -2 -10
-12z"/>
<path d="M13622 8854 c-23 -16 -30 -44 -11 -44 19 0 48 20 59 40 9 17 8 20 -7
20 -10 0 -29 -7 -41 -16z"/>
<path d="M12015 8829 c-12 -19 5 -23 22 -6 16 16 16 17 1 17 -9 0 -20 -5 -23
-11z"/>
<path d="M15140 8794 c0 -9 5 -14 12 -12 18 6 21 28 4 28 -9 0 -16 -7 -16 -16z"/>
<path d="M12695 8789 c-28 -6 -29 -7 -8 -14 13 -4 27 -21 33 -41 7 -19 16 -32
21 -29 12 8 11 35 -4 65 -10 22 -16 25 -42 19z"/>
<path d="M15372 8776 c2 -15 8 -26 13 -26 15 0 12 43 -3 48 -10 3 -13 -4 -10
-22z"/>
<path d="M11961 8776 c-7 -8 -8 -17 -3 -20 6 -3 15 1 21 8 7 8 8 17 3 20 -6 3
-15 -1 -21 -8z"/>
<path d="M12150 8755 c0 -8 5 -15 10 -15 6 0 10 7 10 15 0 8 -4 15 -10 15 -5
0 -10 -7 -10 -15z"/>
<path d="M15150 8750 c-8 -5 -12 -10 -10 -12 6 -5 94 -27 96 -25 1 1 -2 12 -7
25 -9 24 -50 30 -79 12z"/>
<path d="M11705 8741 c-3 -6 3 -15 14 -20 27 -15 31 -14 31 9 0 21 -33 29 -45
11z"/>
<path d="M12764 8729 c-10 -16 23 -39 55 -39 25 1 25 1 6 12 -11 6 -27 17 -37
25 -12 11 -18 11 -24 2z"/>
<path d="M13370 8707 c0 -24 21 -37 40 -25 10 6 25 8 34 5 20 -8 21 -56 2 -63
-11 -4 -4 -17 27 -50 44 -47 58 -52 76 -30 10 11 9 25 -4 62 -9 26 -14 56 -13
68 2 17 -5 23 -42 33 -63 16 -120 16 -120 0z"/>
<path d="M12567 8690 c-3 -11 -2 -22 1 -24 12 -6 52 13 52 25 0 6 -7 9 -15 5
-8 -3 -15 -1 -15 4 0 18 -18 10 -23 -10z"/>
<path d="M12675 8660 c-7 -12 2 -30 16 -30 12 0 12 27 0 35 -5 3 -12 1 -16 -5z"/>
<path d="M12100 8624 c0 -9 5 -14 12 -12 18 6 21 28 4 28 -9 0 -16 -7 -16 -16z"/>
<path d="M13135 8629 c-12 -19 5 -23 22 -6 16 16 16 17 1 17 -9 0 -20 -5 -23
-11z"/>
<path d="M13107 8617 c-4 -12 -14 -15 -34 -12 -15 3 -35 1 -43 -4 -13 -9 -12
-12 5 -26 19 -16 19 -16 -13 -11 -31 5 -82 -10 -82 -25 0 -4 15 -10 33 -14 17
-3 55 -11 84 -17 49 -10 54 -9 77 13 19 19 22 25 11 34 -8 5 -18 26 -22 45 -7
26 -11 30 -16 17z"/>
<path d="M12070 8606 c0 -8 5 -18 10 -21 6 -3 10 3 10 14 0 12 -4 21 -10 21
-5 0 -10 -6 -10 -14z"/>
<path d="M13918 8594 c-47 -25 -36 -37 45 -49 41 -6 46 -5 52 16 14 43 -43 63
-97 33z"/>
<path d="M12340 8575 c-13 -15 -7 -22 59 -71 16 -12 41 -8 41 7 0 9 -71 78
-81 79 -4 0 -12 -7 -19 -15z"/>
<path d="M13622 8548 c2 -14 12 -24 28 -28 37 -9 34 -44 -5 -48 -23 -3 -35 3
-52 24 -27 34 -40 26 -23 -15 8 -19 21 -32 38 -35 33 -7 124 15 129 31 7 20
-67 93 -94 93 -19 0 -24 -4 -21 -22z"/>
<path d="M12452 8536 c1 -10 8 -17 13 -17 15 1 12 24 -3 29 -9 3 -13 -2 -10
-12z"/>
<path d="M12170 8520 c0 -9 31 -30 44 -30 13 0 5 28 -10 34 -23 9 -34 7 -34
-4z"/>
<path d="M12860 8515 c0 -8 7 -15 15 -15 8 0 15 7 15 15 0 8 -7 15 -15 15 -8
0 -15 -7 -15 -15z"/>
<path d="M14418 8503 c-49 -31 -45 -72 5 -59 33 8 58 77 28 76 -3 0 -18 -8
-33 -17z"/>
<path d="M14170 8486 c0 -8 5 -18 10 -21 6 -3 10 3 10 14 0 12 -4 21 -10 21
-5 0 -10 -6 -10 -14z"/>
<path d="M14890 8470 c0 -19 11 -26 23 -14 8 8 -3 34 -14 34 -5 0 -9 -9 -9
-20z"/>
<path d="M12343 8452 c-24 -15 -43 -30 -43 -33 0 -4 12 -20 28 -36 21 -23 32
-28 52 -22 16 4 19 7 8 8 -12 1 -18 9 -18 26 0 31 7 31 29 3 21 -25 51 -19 51
10 0 16 -48 72 -61 72 -2 0 -23 -13 -46 -28z"/>
<path d="M14010 8460 c-8 -5 -12 -12 -8 -15 9 -9 48 4 48 16 0 12 -21 11 -40
-1z"/>
<path d="M12615 8429 c-4 -6 -4 -13 -1 -16 8 -8 36 5 36 17 0 13 -27 13 -35
-1z"/>
<path d="M12850 8425 c0 -8 5 -15 10 -15 6 0 10 7 10 15 0 8 -4 15 -10 15 -5
0 -10 -7 -10 -15z"/>
<path d="M14117 8424 c-24 -25 23 -108 77 -136 21 -11 21 -11 -1 13 -12 13
-29 44 -39 69 -20 52 -28 63 -37 54z"/>
<path d="M14821 8409 c-59 -11 -60 -16 -10 -29 79 -22 179 -11 179 19 0 21
-88 26 -169 10z"/>
<path d="M11870 8394 c0 -9 5 -14 12 -12 18 6 21 28 4 28 -9 0 -16 -7 -16 -16z"/>
<path d="M12220 8395 c0 -9 5 -15 11 -13 6 2 11 8 11 13 0 5 -5 11 -11 13 -6
2 -11 -4 -11 -13z"/>
<path d="M14170 8394 c0 -9 5 -14 12 -12 18 6 21 28 4 28 -9 0 -16 -7 -16 -16z"/>
<path d="M13102 8389 c2 -6 8 -10 13 -10 5 0 11 4 13 10 2 6 -4 11 -13 11 -9
0 -15 -5 -13 -11z"/>
<path d="M13570 8381 c0 -12 5 -21 10 -21 6 0 10 6 10 14 0 8 -4 18 -10 21 -5
3 -10 -3 -10 -14z"/>
<path d="M14485 8372 c-55 -4 -79 -17 -55 -32 25 -16 76 -11 101 8 28 23 18
28 -46 24z"/>
<path d="M14642 8368 c6 -18 28 -21 28 -4 0 9 -7 16 -16 16 -9 0 -14 -5 -12
-12z"/>
<path d="M13990 8349 c-45 -16 -69 -18 -136 -13 -90 7 -124 -3 -124 -38 0 -17
4 -19 23 -13 12 4 90 10 172 14 133 6 195 17 195 37 0 4 -65 35 -72 34 -2 -1
-28 -10 -58 -21z"/>
<path d="M12541 8351 c-7 -5 -12 -14 -10 -20 3 -6 9 -7 18 -2 7 5 12 14 10 20
-3 6 -9 7 -18 2z"/>
<path d="M12591 8347 c-6 -8 -8 -16 -5 -20 10 -9 34 4 34 19 0 18 -14 18 -29
1z"/>
<path d="M13345 8337 c-47 -26 -121 -28 -154 -5 -20 14 -26 14 -69 -2 -26 -10
-67 -24 -92 -31 -29 -9 -46 -20 -48 -33 -4 -18 1 -18 80 -10 147 16 223 12
257 -13 28 -21 32 -22 66 -7 20 8 85 21 146 29 60 8 119 20 131 26 39 21 -5
32 -96 25 -74 -7 -85 -5 -131 18 -27 14 -50 26 -50 25 0 0 -18 -10 -40 -22z"/>
<path d="M14180 8350 c0 -14 39 -32 52 -24 7 5 5 11 -7 21 -22 15 -45 17 -45
3z"/>
<path d="M12206 8314 c-3 -9 -6 -28 -6 -42 0 -40 -14 -57 -30 -37 -17 20 -38
19 -95 -6 -44 -19 -53 -20 -106 -9 -53 12 -102 10 -167 -7 -17 -4 -21 -2 -16
11 7 18 -20 23 -31 6 -10 -16 21 -40 53 -40 18 0 35 -8 43 -20 l14 -20 55 21
c73 29 218 32 304 5 59 -17 60 -17 75 2 23 28 54 42 96 42 42 0 105 24 105 40
0 9 -30 10 -110 5 l-110 -8 0 25 c0 13 -5 29 -12 36 -17 17 -55 15 -62 -4z"/>
<path d="M12804 8279 c-2 -4 5 -13 16 -19 28 -15 95 -9 95 8 0 15 -102 25
-111 11z"/>
<path d="M12540 8266 c0 -8 5 -18 10 -21 6 -3 10 3 10 14 0 12 -4 21 -10 21
-5 0 -10 -6 -10 -14z"/>
<path d="M15465 8229 c-4 -6 -5 -13 -2 -16 7 -7 27 6 27 18 0 12 -17 12 -25
-2z"/>
<path d="M12505 8199 c-4 -6 -5 -13 -2 -16 7 -7 27 6 27 18 0 12 -17 12 -25
-2z"/>
<path d="M14490 8197 c0 -20 30 -57 46 -57 26 0 15 39 -16 55 -23 12 -30 13
-30 2z"/>
<path d="M13367 8178 c-4 -12 -4 -24 -1 -27 6 -7 24 20 24 37 0 21 -17 13 -23
-10z"/>
<path d="M12370 8126 c0 -8 5 -18 10 -21 6 -3 10 3 10 14 0 12 -4 21 -10 21
-5 0 -10 -6 -10 -14z"/>
<path d="M11593 8123 c-18 -7 -16 -23 2 -23 8 0 15 7 15 15 0 8 -1 15 -2 14
-2 0 -9 -3 -15 -6z"/>
<path d="M12270 8110 c0 -11 5 -20 10 -20 6 0 10 9 10 20 0 11 -4 20 -10 20
-5 0 -10 -9 -10 -20z"/>
<path d="M13550 8096 c0 -8 5 -18 10 -21 6 -3 10 3 10 14 0 12 -4 21 -10 21
-5 0 -10 -6 -10 -14z"/>
<path d="M12447 8094 c-8 -8 1 -24 14 -24 5 0 9 7 9 15 0 15 -12 20 -23 9z"/>
<path d="M12997 8093 c-12 -11 -8 -23 8 -23 8 0 15 7 15 15 0 16 -12 20 -23 8z"/>
<path d="M13068 8063 c-10 -2 -18 -9 -18 -14 0 -15 43 -7 48 9 4 12 0 13 -30
5z"/>
<path d="M13612 8036 c1 -10 8 -17 13 -17 15 1 12 24 -3 29 -9 3 -13 -2 -10
-12z"/>
<path d="M14410 8011 c0 -12 5 -21 10 -21 6 0 10 6 10 14 0 8 -4 18 -10 21 -5
3 -10 -3 -10 -14z"/>
<path d="M13560 7996 c0 -8 5 -18 10 -21 6 -3 10 3 10 14 0 12 -4 21 -10 21
-5 0 -10 -6 -10 -14z"/>
<path d="M14450 7984 c-6 -14 -10 -29 -10 -34 0 -9 69 -35 75 -28 9 8 -9 58
-21 58 -8 0 -11 6 -8 15 4 10 0 15 -10 15 -9 0 -21 -12 -26 -26z"/>
<path d="M12420 7906 c0 -8 5 -18 10 -21 6 -3 10 3 10 14 0 12 -4 21 -10 21
-5 0 -10 -6 -10 -14z"/>
<path d="M13635 7900 c-7 -12 2 -30 16 -30 12 0 12 27 0 35 -5 3 -12 1 -16 -5z"/>
<path d="M12047 7893 c-12 -11 -8 -23 8 -23 8 0 15 7 15 15 0 16 -12 20 -23 8z"/>
<path d="M12335 7859 c-4 -6 -5 -13 -2 -16 7 -7 27 6 27 18 0 12 -17 12 -25
-2z"/>
<path d="M12847 7800 c-6 -24 8 -36 17 -14 8 22 7 34 -3 34 -5 0 -11 -9 -14
-20z"/>
<path d="M13330 7805 c-18 -21 -3 -32 16 -13 10 9 12 18 6 22 -5 3 -15 -1 -22
-9z"/>
<path d="M11650 7800 c-8 -5 -12 -12 -8 -15 9 -9 48 4 48 16 0 12 -21 11 -40
-1z"/>
<path d="M11914 7770 c-27 -11 -40 -30 -21 -30 7 0 17 3 21 7 4 4 15 8 23 8 9
0 18 6 20 13 5 14 -12 15 -43 2z"/>
<path d="M12697 7753 c-4 -3 2 -13 14 -21 22 -15 47 -3 35 17 -8 12 -39 15
-49 4z"/>
<path d="M15260 7734 c0 -9 5 -14 12 -12 18 6 21 28 4 28 -9 0 -16 -7 -16 -16z"/>
<path d="M13325 7729 c-9 -14 3 -79 15 -79 11 0 17 28 12 63 -4 28 -16 35 -27
16z"/>
<path d="M14070 7679 c0 -27 3 -30 28 -27 21 2 28 9 30 31 3 24 0 27 -27 27
-28 0 -31 -3 -31 -31z"/>
<path d="M13615 7689 c-4 -6 -5 -13 -2 -16 7 -7 27 6 27 18 0 12 -17 12 -25
-2z"/>
<path d="M13080 7618 c1 -20 38 -98 48 -98 4 0 13 5 19 11 8 8 4 21 -13 46
-13 20 -24 40 -24 44 0 5 -7 9 -15 9 -8 0 -15 -6 -15 -12z"/>
<path d="M12815 7559 c-9 -17 -15 -40 -13 -51 4 -26 28 -37 28 -13 0 9 9 30
21 46 11 16 17 33 14 39 -12 19 -35 10 -50 -21z"/>
<path d="M13009 7554 c-12 -14 -11 -16 5 -13 11 2 21 10 24 17 5 17 -13 15
-29 -4z"/>
<path d="M13655 7500 c-7 -12 2 -30 16 -30 12 0 12 27 0 35 -5 3 -12 1 -16 -5z"/>
<path d="M13388 7474 c-5 -4 -8 -16 -8 -28 0 -14 3 -17 11 -9 6 6 9 19 7 28
-1 9 -6 13 -10 9z"/>
<path d="M14112 7256 c1 -10 8 -17 13 -17 15 1 12 24 -3 29 -9 3 -13 -2 -10
-12z"/>
<path d="M12483 9413 c-16 -6 -17 -33 -3 -33 11 0 26 28 19 34 -2 2 -10 1 -16
-1z"/>
<path d="M12565 9349 c-4 -6 -5 -13 -2 -16 7 -7 27 6 27 18 0 12 -17 12 -25
-2z"/>
<path d="M6058 9123 c-19 -5 -25 -23 -9 -23 17 0 41 12 41 21 0 9 -4 10 -32 2z"/>
<path d="M5897 8773 c-12 -11 -8 -23 8 -23 8 0 15 7 15 15 0 16 -12 20 -23 8z"/>
<path d="M6240 7894 c0 -9 5 -14 12 -12 18 6 21 28 4 28 -9 0 -16 -7 -16 -16z"/>
<path d="M5205 8719 c-10 -15 1 -23 20 -15 9 3 13 10 10 16 -8 13 -22 13 -30
-1z"/>
<path d="M5605 8489 c-4 -6 -4 -13 -1 -16 8 -8 36 5 36 17 0 13 -27 13 -35 -1z"/>
<path d="M5447 8403 c-4 -3 -7 -10 -7 -14 0 -9 39 1 46 12 6 10 -29 12 -39 2z"/>
<path d="M5437 8233 c-12 -11 -8 -23 7 -23 8 0 16 7 20 15 5 15 -14 21 -27 8z"/>
<path d="M5703 8153 c-16 -6 -17 -33 -3 -33 11 0 26 28 19 34 -2 2 -10 1 -16
-1z"/>
<path d="M5734 8055 c-16 -12 -17 -14 -2 -15 25 0 49 11 42 21 -7 13 -17 11
-40 -6z"/>
<path d="M5785 7629 c-4 -6 -5 -13 -2 -16 7 -7 27 6 27 18 0 12 -17 12 -25 -2z"/>
<path d="M6301 9006 c-7 -8 -8 -17 -3 -20 6 -3 15 1 21 8 7 8 8 17 3 20 -6 3
-15 -1 -21 -8z"/>
<path d="M6417 8123 c-12 -11 -8 -23 8 -23 8 0 15 7 15 15 0 16 -12 20 -23 8z"/>
<path d="M6817 8793 c-12 -11 -8 -23 8 -23 8 0 15 7 15 15 0 16 -12 20 -23 8z"/>
<path d="M6815 8710 c-4 -7 -3 -16 3 -22 13 -13 54 0 49 15 -5 16 -43 21 -52
7z"/>
<path d="M6670 7735 c0 -9 6 -12 15 -9 8 4 15 10 15 15 0 5 -7 9 -15 9 -8 0
-15 -7 -15 -15z"/>
<path d="M6530 7660 c-8 -5 -11 -12 -8 -16 10 -9 38 3 38 16 0 12 -10 13 -30
0z"/>
<path d="M4775 8799 c-4 -6 -5 -13 -2 -16 7 -7 27 6 27 18 0 12 -17 12 -25 -2z"/>
<path d="M4659 8744 c-12 -14 -11 -16 5 -13 11 2 21 10 24 17 5 17 -13 15 -29
-4z"/>
<path d="M4720 8700 c0 -11 5 -20 10 -20 6 0 10 9 10 20 0 11 -4 20 -10 20 -5
0 -10 -9 -10 -20z"/>
<path d="M5490 7764 c0 -9 5 -14 12 -12 18 6 21 28 4 28 -9 0 -16 -7 -16 -16z"/>
<path d="M5443 7693 c-18 -6 -16 -23 1 -23 17 0 30 16 19 23 -5 2 -14 2 -20 0z"/>
<path d="M9057 8463 c-12 -11 -8 -23 7 -23 8 0 16 7 20 15 5 15 -14 21 -27 8z"/>
<path d="M9000 8361 c-15 -28 -13 -31 18 -31 26 0 62 25 62 43 0 4 -16 7 -35
7 -24 0 -37 -6 -45 -19z"/>
<path d="M9460 7986 c0 -8 5 -18 10 -21 6 -3 10 3 10 14 0 12 -4 21 -10 21 -5
0 -10 -6 -10 -14z"/>
<path d="M9265 7940 c-3 -5 3 -10 14 -10 11 0 23 5 26 10 3 6 -3 10 -14 10
-11 0 -23 -4 -26 -10z"/>
<path d="M9001 7916 c-7 -8 -8 -17 -3 -20 6 -3 15 1 21 8 7 8 8 17 3 20 -6 3
-15 -1 -21 -8z"/>
<path d="M9080 7890 c0 -34 26 -52 41 -29 15 24 6 54 -18 57 -20 3 -23 -1 -23
-28z"/>
<path d="M9293 7893 c-18 -6 -16 -23 1 -23 17 0 30 16 19 23 -5 2 -14 2 -20 0z"/>
<path d="M9375 7880 c-3 -5 3 -10 14 -10 11 0 23 5 26 10 3 6 -3 10 -14 10
-11 0 -23 -4 -26 -10z"/>
<path d="M8769 7854 c-12 -14 -11 -16 5 -13 11 2 21 10 24 17 5 17 -13 15 -29
-4z"/>
<path d="M8685 7829 c-4 -6 -5 -13 -2 -16 7 -7 27 6 27 18 0 12 -17 12 -25 -2z"/>
<path d="M9393 7791 c-21 -18 -31 -41 -17 -41 3 0 17 10 30 23 39 37 28 52
-13 18z"/>
<path d="M8614 7785 c-13 -33 17 -45 51 -19 17 13 18 16 5 24 -22 14 -50 12
-56 -5z"/>
<path d="M8855 7769 c-4 -6 -5 -13 -2 -16 7 -7 27 6 27 18 0 12 -17 12 -25 -2z"/>
<path d="M9351 7721 c-7 -5 -12 -14 -10 -20 3 -6 9 -7 18 -2 7 5 12 14 10 20
-3 6 -9 7 -18 2z"/>
<path d="M4630 8424 c0 -9 5 -14 12 -12 18 6 21 28 4 28 -9 0 -16 -7 -16 -16z"/>
<path d="M4500 8230 c-8 -5 -12 -11 -9 -14 7 -8 49 5 49 15 0 12 -21 11 -40
-1z"/>
<path d="M5065 7829 c-4 -6 -5 -13 -2 -16 7 -7 27 6 27 18 0 12 -17 12 -25 -2z"/>
<path d="M5065 7659 c-4 -6 -5 -13 -2 -16 7 -7 27 6 27 18 0 12 -17 12 -25 -2z"/>
<path d="M5325 7459 c-4 -6 -5 -13 -2 -16 7 -7 27 6 27 18 0 12 -17 12 -25 -2z"/>
<path d="M5120 7364 c0 -9 5 -14 12 -12 18 6 21 28 4 28 -9 0 -16 -7 -16 -16z"/>
<path d="M7275 8229 c-4 -6 -5 -13 -2 -16 7 -7 27 6 27 18 0 12 -17 12 -25 -2z"/>
<path d="M5987 7923 c-13 -13 -7 -32 8 -27 8 4 15 12 15 20 0 15 -12 19 -23 7z"/>
<path d="M6028 7863 c-10 -2 -18 -9 -18 -14 0 -15 43 -7 48 9 4 12 0 13 -30 5z"/>
<path d="M6070 7660 c-8 -5 -11 -12 -8 -16 10 -9 38 3 38 16 0 12 -10 13 -30
0z"/>
<path d="M6150 7431 c0 -11 -12 -28 -27 -39 -25 -18 -26 -21 -11 -36 9 -9 28
-16 42 -16 24 0 26 4 26 39 0 44 -8 71 -21 71 -5 0 -9 -9 -9 -19z"/>
<path d="M10980 7964 c0 -9 5 -14 12 -12 18 6 21 28 4 28 -9 0 -16 -7 -16 -16z"/>
<path d="M11100 7910 c0 -5 9 -10 19 -10 11 0 23 5 26 10 4 6 -5 10 -19 10
-14 0 -26 -4 -26 -10z"/>
<path d="M11125 7829 c-4 -6 -5 -13 -2 -16 7 -7 27 6 27 18 0 12 -17 12 -25
-2z"/>
<path d="M11340 7830 c-8 -5 -12 -12 -8 -15 9 -9 48 4 48 16 0 12 -21 11 -40
-1z"/>
<path d="M4235 7999 c-8 -12 11 -29 33 -29 19 0 10 34 -10 38 -9 2 -19 -2 -23
-9z"/>
<path d="M4429 7824 c-12 -14 -11 -16 5 -13 11 2 21 10 24 17 5 17 -13 15 -29
-4z"/>
<path d="M10550 7764 c0 -9 5 -14 12 -12 18 6 21 28 4 28 -9 0 -16 -7 -16 -16z"/>
<path d="M4123 7523 c-16 -6 -17 -33 -3 -33 11 0 26 28 19 34 -2 2 -10 1 -16
-1z"/>
<path d="M4455 7369 c-4 -6 -4 -13 -1 -16 8 -8 36 5 36 17 0 13 -27 13 -35 -1z"/>
<path d="M9285 7309 c-12 -19 5 -23 22 -6 16 16 16 17 1 17 -9 0 -20 -5 -23
-11z"/>
<path d="M9405 7251 c-8 -15 35 -35 47 -23 6 6 7 15 4 21 -9 14 -43 14 -51 2z"/>
</g>
</svg>
