<?xml version="1.0" standalone="no"?>
<!DOCTYPE svg PUBLIC "-//W3C//DTD SVG 20010904//EN"
 "http://www.w3.org/TR/2001/REC-SVG-20010904/DTD/svg10.dtd">
<svg version="1.0" xmlns="http://www.w3.org/2000/svg"
 width="1024.000000pt" height="1024.000000pt" viewBox="0 0 1024.000000 1024.000000"
 preserveAspectRatio="xMidYMid meet">

<g transform="translate(0.000000,1024.000000) scale(0.100000,-0.100000)"
fill="#000000" stroke="none">
<path d="M6735 9333 c-118 -42 -200 -115 -252 -222 -25 -50 -27 -67 -28 -161
0 -149 16 -180 247 -485 54 -71 114 -148 133 -170 l34 -40 33 39 c95 113 302
399 333 460 65 131 67 253 6 375 -36 71 -124 154 -198 188 -77 35 -231 43
-308 16z m266 -159 c129 -70 176 -219 109 -350 -30 -58 -222 -326 -239 -332
-11 -4 -215 268 -246 328 -14 28 -28 70 -31 94 -8 55 16 139 56 194 71 99 233
129 351 66z"/>
<path d="M6827 9103 c-15 -2 -45 -21 -66 -41 -68 -65 -74 -152 -14 -221 62
-73 152 -79 224 -14 92 83 70 212 -46 264 -40 19 -47 19 -98 12z"/>
<path d="M4530 9210 c-168 -27 -298 -130 -362 -288 l-23 -57 -3 -855 c-2 -583
1 -875 8 -918 28 -162 140 -296 298 -355 54 -20 77 -21 510 -25 415 -3 452 -5
452 -20 0 -96 11 -225 20 -244 29 -56 103 -76 157 -41 41 27 53 70 53 192 l0
109 108 3 c95 4 112 7 154 32 88 51 148 148 148 238 0 129 59 219 142 219 31
0 54 -7 72 -21 49 -39 56 -65 56 -227 0 -132 2 -151 18 -165 25 -23 45 -21 68
4 15 17 20 41 24 127 l5 107 56 3 57 3 4 -89 c5 -104 24 -146 84 -179 50 -29
90 -29 145 0 65 35 89 82 89 180 0 96 -6 98 153 -53 128 -123 251 -263 353
-407 l66 -93 209 0 209 0 -21 43 c-40 78 -176 271 -285 402 -308 373 -674 662
-1044 825 -172 76 -366 140 -497 164 l-33 6 0 -110 0 -110 53 0 c170 0 428
-125 540 -262 38 -46 107 -156 107 -170 0 -4 -54 -8 -119 -8 -115 0 -119 1
-125 23 -9 37 -73 104 -122 127 -65 32 -183 32 -249 0 -70 -34 -92 -75 -98
-183 -4 -77 -10 -99 -42 -163 -48 -98 -94 -134 -172 -134 -29 0 -53 2 -53 5 0
2 22 25 49 50 26 25 64 73 82 108 l34 62 7 650 c9 829 3 1160 -23 1233 -38
112 -134 203 -260 244 -61 21 -84 22 -534 24 -258 1 -495 -1 -525 -6z m861
-242 c1 -62 2 -122 3 -132 1 -12 11 -22 28 -27 104 -28 207 -140 244 -264 24
-82 24 -296 -1 -380 -37 -131 -115 -224 -223 -266 -55 -22 -70 -23 -364 -23
l-308 -1 -2 -510 -3 -510 -125 0 c-105 1 -132 4 -171 22 -63 28 -120 81 -149
140 l-25 48 -3 885 c-2 577 1 897 7 920 16 56 66 127 110 156 80 53 84 53 549
54 l432 0 1 -112z m257 -1817 c8 -4 14 -29 14 -60 2 -79 -8 -85 -148 -85 -133
0 -134 0 -134 86 0 46 3 57 18 61 31 8 237 7 250 -2z m1120 -194 c3 -60 0 -70
-22 -92 -30 -30 -37 -31 -67 -6 -19 16 -24 30 -27 89 l-4 71 43 4 c76 7 74 8
77 -66z"/>
<path d="M4682 8709 c-88 -26 -167 -100 -198 -186 -20 -56 -19 -286 2 -346 20
-59 89 -131 152 -160 45 -21 63 -22 372 -25 233 -2 337 0 369 9 61 17 131 76
166 140 29 52 30 59 33 201 4 139 2 150 -21 200 -30 66 -87 124 -152 154 -49
24 -54 24 -370 23 -176 0 -335 -5 -353 -10z m645 -174 c61 -37 73 -65 73 -183
0 -86 -3 -103 -23 -133 -44 -67 -61 -70 -354 -67 -246 3 -263 4 -289 24 -61
45 -69 66 -69 182 0 124 10 148 78 181 39 20 59 21 291 21 249 0 249 0 293
-25z"/>
<path d="M3040 9011 c-99 -27 -169 -67 -235 -136 -269 -277 -148 -728 224
-839 67 -20 198 -21 267 -2 311 83 464 419 326 715 -36 79 -152 193 -233 231
-113 53 -231 63 -349 31z m283 -148 c81 -39 144 -100 183 -179 26 -54 29 -68
29 -164 0 -94 -3 -111 -28 -161 -50 -102 -159 -184 -281 -209 -157 -32 -346
74 -407 227 -35 87 -34 218 3 295 47 100 137 180 241 214 70 23 182 13 260
-23z"/>
<path d="M3072 8700 c-154 -70 -147 -299 10 -365 93 -38 198 -6 256 79 60 90
37 205 -55 269 -34 25 -52 30 -107 32 -45 1 -78 -4 -104 -15z m156 -126 c29
-33 28 -76 -2 -110 -67 -79 -189 19 -130 104 33 48 92 50 132 6z"/>
<path d="M8400 8955 c-102 -29 -188 -102 -254 -216 l-27 -47 -47 15 c-32 10
-74 13 -134 10 -75 -4 -95 -9 -150 -39 -114 -63 -173 -169 -171 -313 2 -131
52 -250 158 -374 l46 -54 -24 -26 c-14 -14 -46 -57 -71 -95 -103 -155 -132
-326 -77 -451 28 -63 93 -129 154 -155 70 -31 174 -37 256 -16 34 9 64 16 67
16 2 0 15 -23 30 -52 36 -71 116 -153 181 -185 111 -54 262 -40 371 34 56 38
92 79 136 155 25 43 29 46 53 37 80 -30 231 -20 315 22 134 68 201 249 153
415 -22 78 -73 173 -138 259 l-53 71 54 64 c62 75 124 191 142 268 18 77 9
196 -19 252 -34 68 -97 127 -159 150 -64 24 -182 27 -262 6 -30 -8 -56 -14
-56 -13 -1 1 -13 25 -27 53 -87 172 -271 258 -447 209z m184 -130 c116 -49
185 -180 220 -417 8 -54 17 -102 21 -108 8 -12 65 -13 84 -1 11 7 13 31 7 127
-4 64 -8 122 -9 128 -3 17 64 35 137 35 137 2 202 -61 200 -194 -2 -153 -94
-297 -307 -480 -37 -32 -45 -45 -40 -63 7 -28 35 -44 60 -35 10 3 40 22 66 41
56 40 45 46 127 -76 122 -182 125 -362 8 -439 -81 -54 -209 -35 -501 73 -65
24 -122 44 -127 44 -18 0 -50 -40 -50 -61 0 -16 21 -30 105 -69 58 -28 116
-52 130 -56 33 -8 32 -21 -6 -78 -78 -117 -204 -156 -318 -100 -69 35 -110 93
-151 211 -28 81 -35 93 -55 93 -41 0 -74 -18 -81 -44 -7 -28 -12 -30 -95 -45
-100 -18 -183 13 -225 84 -31 54 -35 132 -10 217 17 57 93 198 127 234 l21 23
38 -25 c47 -31 81 -29 94 7 8 24 1 34 -101 135 -94 94 -115 121 -153 197 -70
144 -67 272 9 348 86 87 210 74 561 -58 36 -13 75 -21 87 -18 27 6 41 49 23
70 -6 8 -60 33 -118 56 -59 23 -110 43 -114 46 -13 7 39 97 79 135 74 71 176
96 257 63z"/>
<path d="M8389 8266 c-133 -47 -211 -159 -211 -301 0 -177 126 -308 297 -309
100 -1 167 25 231 88 63 64 94 139 94 230 0 84 -23 146 -76 205 -63 71 -132
101 -226 101 -40 -1 -89 -7 -109 -14z m-39 -282 c0 -31 41 -84 84 -109 33 -19
57 -25 104 -25 46 0 62 -4 62 -14 0 -23 -25 -36 -78 -43 -91 -10 -185 56 -199
141 -6 39 1 66 17 66 5 0 10 -7 10 -16z"/>
<path d="M7971 7724 c-61 -43 -60 -147 2 -184 118 -72 241 86 136 174 -36 31
-101 35 -138 10z"/>
<path d="M1886 8834 c-11 -10 -16 -34 -16 -70 l0 -54 -54 0 c-75 0 -103 -30
-76 -81 9 -15 22 -19 70 -19 l60 0 0 -48 c0 -56 21 -92 54 -92 34 0 44 18 48
80 l3 55 55 3 c63 4 80 14 80 51 0 40 -18 51 -82 51 l-58 0 0 58 c0 32 -5 63
-12 70 -17 17 -54 15 -72 -4z"/>
<path d="M1013 8413 c-29 -6 -53 -40 -53 -74 0 -69 81 -98 127 -45 26 30 28
44 12 79 -9 20 -53 52 -62 46 -1 -1 -12 -4 -24 -6z"/>
<path d="M1646 8005 c-178 -37 -330 -161 -401 -329 -18 -43 -33 -65 -41 -62
-44 17 -102 27 -127 22 -39 -8 -56 -32 -57 -78 0 -48 24 -64 108 -74 l62 -7 0
-61 c1 -148 55 -272 170 -387 116 -116 244 -169 405 -169 204 1 375 93 486
264 63 96 81 156 88 285 l6 115 45 11 c90 23 116 55 88 111 -21 44 -58 50
-121 21 l-54 -24 -30 61 c-38 75 -124 172 -199 221 -119 79 -284 110 -428 80z
m312 -165 c37 -17 84 -51 116 -83 51 -51 106 -139 106 -171 0 -11 -97 -105
-216 -208 -20 -17 -23 -16 -160 73 -76 51 -141 93 -143 95 -16 14 101 259 147
307 32 34 54 32 150 -13z m-313 -12 c-13 -24 -38 -77 -56 -118 -17 -41 -33
-77 -35 -79 -5 -5 -134 82 -134 90 0 4 19 26 43 49 44 45 146 100 184 100 l22
0 -24 -42z m-204 -275 c63 -46 78 -62 74 -78 -15 -61 -26 -221 -20 -297 4 -53
3 -88 -3 -88 -13 0 -93 88 -120 131 -36 60 -55 154 -48 239 6 77 22 150 33
150 3 0 41 -26 84 -57z m774 -155 c-9 -68 -36 -168 -46 -168 -12 0 -109 60
-109 68 0 9 143 141 153 142 4 0 5 -19 2 -42z m-469 -55 c57 -36 104 -67 104
-69 0 -5 -214 -174 -220 -174 -12 0 -21 174 -14 245 4 36 11 65 17 65 5 0 56
-30 113 -67z m282 -175 l65 -42 -49 -43 c-79 -70 -216 -108 -319 -89 l-36 7
125 95 c69 52 128 99 131 105 9 14 14 12 83 -33z"/>
<path d="M3882 7735 c-104 -43 -315 -149 -407 -205 -359 -219 -649 -488 -927
-860 -78 -105 -178 -258 -178 -274 0 -3 96 -6 213 -5 l212 0 57 82 c205 294
468 546 763 731 50 31 154 88 233 127 l142 71 0 184 c0 141 -3 184 -12 184 -7
-1 -50 -16 -96 -35z"/>
<path d="M3436 6934 c-19 -48 1 -84 46 -84 31 0 45 31 34 75 -5 20 -12 25 -40
25 -22 0 -36 -6 -40 -16z"/>
<path d="M3635 6921 c-9 -42 9 -71 44 -71 22 0 30 6 35 25 4 14 4 36 0 50 -5
20 -12 25 -39 25 -29 0 -34 -4 -40 -29z"/>
<path d="M3840 6905 c0 -39 3 -45 25 -51 42 -11 55 1 55 51 l0 45 -40 0 -40 0
0 -45z"/>
<path d="M6317 6554 c-4 -4 -7 -42 -7 -85 0 -70 2 -78 21 -84 11 -4 32 -4 45
-1 24 6 25 9 22 89 l-3 82 -35 3 c-20 2 -39 0 -43 -4z"/>
<path d="M736 6221 c-3 -5 140 -152 319 -326 l325 -318 0 -717 0 -717 -262
-249 c-145 -137 -290 -275 -323 -306 l-60 -58 4375 0 4375 0 -50 48 c-28 26
-175 165 -328 310 l-277 263 0 709 0 708 163 159 c353 344 497 488 497 495 0
11 -8747 10 -8754 -1z m1327 -343 c36 -87 247 -621 322 -813 132 -340 169
-431 178 -436 9 -5 28 40 307 741 111 278 205 508 209 513 4 4 109 6 234 5
l226 -3 -53 -140 c-65 -171 -674 -1697 -723 -1812 l-35 -83 -167 0 -166 0 -42
103 c-23 56 -85 215 -138 352 -80 207 -342 882 -455 1175 -16 41 -58 150 -94
243 l-64 167 228 0 c173 0 229 -3 233 -12z m3379 -130 c37 -79 111 -240 166
-358 54 -118 208 -449 342 -735 133 -286 270 -581 305 -655 35 -74 61 -138 59
-142 -2 -4 -109 -7 -237 -8 l-233 -1 -28 58 c-16 32 -58 123 -93 203 -36 80
-67 147 -69 149 -6 6 -894 5 -900 -2 -3 -3 -41 -86 -85 -184 -44 -98 -87 -188
-95 -201 l-15 -23 -492 3 c-442 3 -495 5 -523 20 -43 24 -82 72 -89 111 -3 18
-5 289 -3 603 l3 571 29 37 c34 46 79 66 143 66 57 0 99 -23 139 -76 l29 -37
3 -444 3 -443 235 2 236 3 112 245 c158 343 376 819 514 1122 l117 257 181 1
180 0 66 -142z m2226 126 c484 -98 823 -503 822 -982 -1 -195 -77 -435 -190
-602 -55 -81 -192 -218 -264 -264 -121 -78 -261 -135 -376 -154 -37 -6 -263
-13 -522 -16 l-458 -4 0 1019 0 1019 455 0 c373 0 470 -3 533 -16z"/>
<path d="M5177 5193 c-8 -21 -31 -72 -50 -113 -51 -110 -175 -393 -179 -408
-2 -10 49 -13 251 -12 140 0 257 2 259 5 6 6 -249 565 -258 565 -4 0 -15 -17
-23 -37z"/>
<path d="M7119 5514 c-2 -5 -3 -296 -1 -646 l3 -638 191 0 c219 0 278 10 398
68 99 48 210 157 264 260 125 240 110 498 -39 708 -77 108 -178 179 -320 224
-61 20 -98 23 -281 28 -116 2 -213 0 -215 -4z"/>
<path d="M1019 4995 c-81 -44 -46 -167 47 -167 50 0 84 37 84 90 -1 74 -66
112 -131 77z"/>
<path d="M9119 4981 c-48 -48 -38 -116 22 -146 25 -13 37 -14 65 -5 43 15 64
44 64 91 0 29 -7 43 -31 63 -41 35 -83 34 -120 -3z"/>
<path d="M2510 3377 c0 -7 32 -55 72 -107 335 -444 683 -746 1097 -955 155
-78 384 -165 398 -151 5 4 -15 359 -20 361 -1 1 -47 21 -102 44 -352 151 -669
398 -935 726 -35 44 -69 83 -75 87 -5 4 -106 8 -222 8 -167 0 -213 -3 -213
-13z"/>
<path d="M7260 3351 c-19 -20 -71 -79 -115 -130 -230 -269 -601 -535 -920
-661 -44 -18 -85 -36 -91 -41 -7 -5 -15 -44 -19 -87 -4 -42 -13 -122 -20 -177
-8 -54 -12 -101 -10 -103 7 -7 153 39 261 82 459 183 861 489 1224 931 74 90
160 207 160 218 0 2 -98 4 -217 4 l-218 0 -35 -36z"/>
<path d="M9130 3252 l-85 -89 -80 -6 c-231 -19 -459 -144 -715 -393 l-75 -73
-129 15 c-97 11 -131 12 -142 3 -8 -6 -36 -51 -64 -98 -27 -48 -60 -99 -73
-113 -31 -33 -38 -62 -26 -98 12 -34 36 -42 75 -25 35 14 74 63 123 154 l37
66 49 -4 c28 -1 52 -5 54 -7 2 -2 -14 -27 -36 -56 -54 -73 -141 -218 -148
-248 -4 -20 5 -38 44 -87 l50 -61 -40 -94 c-48 -111 -70 -176 -60 -182 11 -7
89 12 177 44 44 17 87 30 95 29 8 0 28 -19 45 -42 21 -28 37 -41 50 -39 31 5
165 70 230 113 33 21 63 39 67 39 4 0 7 -22 7 -50 l0 -50 -89 -44 c-93 -47
-101 -56 -101 -112 0 -26 5 -37 23 -45 20 -9 43 -1 156 55 72 37 134 73 137
81 3 8 1 71 -6 140 l-11 126 83 88 c232 245 363 521 397 838 l9 81 71 83 71
83 -32 33 c-17 18 -37 33 -43 33 -6 0 -49 -40 -95 -88z m-120 -239 c-2 -68
-64 -313 -79 -313 -17 0 -261 215 -261 229 0 11 89 51 161 71 64 19 179 27
179 13z m-320 -264 c69 -62 140 -123 157 -136 32 -25 32 -25 16 -56 -44 -86
-199 -282 -290 -368 -80 -75 -247 -189 -277 -189 -14 0 -184 172 -235 237
l-32 43 65 97 c73 110 213 272 302 350 76 66 157 132 164 133 3 0 62 -50 130
-111z"/>
<path d="M8557 2652 c-37 -38 -38 -102 -3 -137 46 -46 109 -45 153 3 21 23 24
34 20 72 -7 59 -41 90 -101 90 -33 0 -48 -6 -69 -28z"/>
<path d="M8166 3278 c-19 -28 -59 -119 -54 -122 11 -7 61 -26 68 -26 10 0 70
112 70 129 0 9 -50 41 -64 41 -3 0 -12 -10 -20 -22z"/>
<path d="M3588 3264 c-10 -21 -9 -31 7 -61 48 -88 277 -280 325 -271 8 2 21
16 29 32 16 33 16 33 -103 125 -52 41 -98 87 -169 169 -34 40 -72 43 -89 6z"/>
<path d="M6486 3215 c-37 -41 -97 -96 -133 -122 -119 -87 -127 -95 -116 -129
14 -42 46 -42 123 3 75 44 240 203 259 251 12 29 12 35 -4 52 -32 36 -57 25
-129 -55z"/>
<path d="M4282 3259 c-51 -15 -107 -78 -121 -137 -13 -54 -10 -98 30 -472 11
-102 37 -367 58 -590 28 -296 43 -414 55 -437 22 -44 21 -49 -26 -112 -104
-138 -208 -284 -208 -292 0 -12 1980 -12 1999 0 17 11 22 3 -122 194 l-120
158 23 41 c20 36 26 73 46 307 12 146 41 455 63 687 23 231 41 440 41 465 -1
79 -55 163 -123 188 -36 14 -1547 13 -1595 0z m1542 -160 c32 -38 32 -49 6
-329 -12 -118 -39 -408 -60 -644 -42 -454 -45 -467 -96 -486 -32 -12 -254 -13
-254 -1 0 5 7 14 16 22 8 7 28 36 42 63 25 47 27 60 27 171 0 92 -5 134 -20
180 -25 79 -89 171 -151 218 -74 56 -131 70 -287 65 -124 -3 -135 -5 -185 -33
-103 -57 -187 -180 -213 -313 -18 -96 -8 -226 24 -288 14 -28 33 -56 41 -63 9
-8 16 -17 16 -22 0 -5 -52 -9 -116 -9 l-116 0 -33 33 c-24 24 -35 45 -39 78
-12 98 -126 1276 -126 1305 0 19 10 41 25 58 l24 26 725 0 724 0 26 -31z
m-994 -1205 c0 -41 -4 -63 -10 -59 -18 11 -12 125 7 125 2 0 3 -30 3 -66z
m510 -1 c0 -48 -3 -64 -10 -53 -17 26 -12 120 7 120 2 0 3 -30 3 -67z m324
-506 c10 -7 16 -22 14 -33 -3 -18 -19 -19 -578 -22 -316 -1 -585 0 -597 3 -27
6 -30 27 -7 49 14 14 80 16 583 16 453 0 571 -3 585 -13z"/>
<path d="M4977 2955 c-145 -53 -214 -233 -144 -371 100 -196 387 -188 483 13
52 111 18 242 -84 320 -70 53 -172 68 -255 38z"/>
<path d="M1800 3026 c-114 -33 -484 -177 -514 -200 -77 -58 -107 -185 -67
-279 21 -49 19 -57 -14 -57 -13 0 -29 -7 -36 -16 -11 -14 -10 -27 13 -88 14
-39 74 -201 133 -361 59 -159 129 -354 157 -432 27 -78 61 -160 75 -181 38
-59 89 -84 161 -80 l59 3 -15 49 c-13 39 -22 51 -50 63 -42 18 -41 49 5 76 58
34 207 78 279 84 69 6 72 5 79 -18 11 -37 36 -59 65 -59 26 0 164 46 380 127
133 49 133 49 128 85 -3 17 -1 51 3 76 7 36 4 57 -15 111 -58 160 -288 746
-304 773 -35 60 -106 84 -193 65 l-37 -7 -36 93 c-59 152 -139 206 -256 173z
m98 -139 c19 -20 72 -143 72 -166 0 -5 -20 -17 -45 -26 -34 -13 -64 -16 -122
-13 l-78 5 -55 -60 c-65 -72 -134 -106 -230 -114 l-67 -6 -23 48 c-13 26 -24
68 -24 92 -1 38 4 49 30 72 17 16 51 36 75 44 24 9 123 45 219 81 96 36 187
65 201 65 14 1 35 -9 47 -22z m320 -270 c25 -23 58 -117 49 -140 -3 -8 -49
-29 -101 -47 -53 -18 -101 -39 -106 -45 -7 -9 -7 -22 0 -41 20 -55 31 -56 151
-13 l109 38 15 -29 c13 -25 21 -70 12 -70 -16 0 -202 -72 -207 -80 -11 -18 0
-57 21 -76 18 -16 24 -15 120 19 56 20 105 34 110 31 9 -5 39 -70 39 -84 0 -5
-42 -22 -94 -40 -113 -37 -122 -46 -103 -93 8 -19 20 -38 26 -41 6 -4 56 9
111 29 54 20 103 34 109 31 6 -4 18 -31 27 -61 15 -45 15 -58 4 -85 -7 -17
-25 -37 -41 -45 -29 -16 -247 -95 -260 -95 -9 0 -60 123 -154 369 -40 108 -99
260 -129 339 -60 152 -64 172 -42 172 8 0 54 14 103 31 175 62 189 64 231 26z
m-447 -431 c87 -60 91 -170 9 -240 -61 -51 -165 -27 -210 46 -77 127 79 277
201 194z"/>
<path d="M9180 2214 c-19 -50 -19 -50 84 -93 27 -12 52 -21 57 -21 8 0 42 70
37 76 -10 9 -141 64 -153 64 -9 0 -20 -12 -25 -26z"/>
<path d="M6911 1955 c-63 -18 -106 -43 -141 -81 -14 -15 -58 -42 -98 -60 -138
-64 -255 -161 -288 -239 -79 -189 146 -318 498 -285 132 13 171 21 301 62 54
17 100 28 104 25 7 -8 -33 -86 -60 -116 -12 -13 -56 -46 -97 -74 l-75 -51 34
-9 c46 -11 151 7 211 38 90 45 148 153 137 251 -4 43 -3 44 48 84 60 47 102
101 111 147 15 76 -58 173 -156 207 -30 10 -71 28 -90 41 -19 12 -62 32 -95
45 -79 30 -263 38 -344 15z m164 -141 c11 -12 15 -30 13 -62 -2 -38 -7 -48
-28 -58 -99 -45 -122 -60 -141 -91 -20 -31 -20 -35 -5 -58 25 -37 54 -32 195
36 129 62 129 62 213 43 l28 -6 -15 43 c-9 24 -22 54 -30 66 -21 32 -19 35 18
28 43 -9 124 -54 131 -72 13 -34 -30 -73 -154 -140 -160 -86 -321 -126 -515
-127 -130 0 -209 17 -252 57 -37 33 -29 65 28 120 45 44 174 117 206 117 6 0
18 9 27 21 52 75 235 129 281 83z"/>
<path d="M3434 1896 c-17 -13 -20 -31 -24 -178 l-5 -163 -160 -3 c-93 -2 -165
-8 -172 -14 -19 -15 -16 -62 5 -81 16 -14 43 -17 175 -17 l157 0 0 -150 c0
-137 2 -152 20 -170 11 -11 27 -20 35 -20 8 0 24 9 35 20 18 18 20 33 20 170
l0 150 170 0 c157 0 172 2 190 20 26 26 25 51 -1 79 -22 23 -25 23 -188 20
l-166 -4 -3 160 c-2 149 -4 161 -23 178 -26 21 -39 21 -65 3z"/>
<path d="M2760 1843 c-53 -19 -70 -98 -28 -127 52 -36 118 -4 118 58 0 46 -49
84 -90 69z"/>
<path d="M8555 1385 c-28 -27 -34 -88 -12 -116 35 -45 85 -50 128 -11 43 38
45 94 5 128 -37 32 -89 32 -121 -1z"/>
<path d="M4012 1099 c6 -62 33 -100 83 -117 30 -10 242 -12 1004 -10 901 3
969 4 994 20 34 23 43 41 52 106 l7 52 -1072 0 -1073 0 5 -51z"/>
</g>
</svg>
