<?xml version="1.0" standalone="no"?>
<!DOCTYPE svg PUBLIC "-//W3C//DTD SVG 20010904//EN"
 "http://www.w3.org/TR/2001/REC-SVG-20010904/DTD/svg10.dtd">
<svg version="1.0" xmlns="http://www.w3.org/2000/svg"
 width="1024.000000pt" height="1024.000000pt" viewBox="0 0 1024.000000 1024.000000"
 preserveAspectRatio="xMidYMid meet">

<g transform="translate(0.000000,1024.000000) scale(0.100000,-0.100000)"
fill="#000000" stroke="none">
<path d="M0 5120 l0 -5120 5120 0 5120 0 0 5120 0 5120 -5120 0 -5120 0 0
-5120z m5165 3803 c220 -55 412 -244 471 -463 22 -84 23 -234 1 -317 -22 -85
-74 -188 -117 -232 -19 -21 -30 -30 -24 -22 6 9 17 26 23 38 9 19 9 22 -3 17
-8 -3 -23 -1 -34 5 -14 7 -21 8 -24 1 -2 -7 -16 -5 -36 6 -18 9 -41 14 -51 11
-14 -3 -17 0 -14 14 4 15 2 18 -12 12 -13 -5 -16 -3 -10 6 5 10 2 11 -13 7
-15 -5 -25 -1 -34 13 -7 12 -18 21 -25 21 -7 0 -13 5 -13 10 0 6 -11 10 -25
10 -15 0 -25 6 -25 15 0 8 -13 21 -30 30 -16 9 -30 12 -30 8 0 -4 -9 3 -20 15
-11 12 -31 24 -45 28 -13 3 -26 12 -29 19 -2 7 -20 16 -38 21 -18 4 -27 9 -20
11 22 8 13 23 -15 23 -14 0 -24 3 -20 6 8 8 -63 45 -73 39 -5 -3 -10 1 -13 9
-3 8 -22 22 -41 31 -20 10 -36 24 -36 32 0 11 -7 14 -21 10 -15 -4 -23 0 -26
14 -3 11 -14 19 -28 19 -12 0 -35 11 -51 25 -16 14 -36 25 -44 25 -8 0 -24 7
-34 15 -11 8 -28 15 -38 15 -10 0 -18 3 -18 8 0 4 -19 15 -43 24 -76 30 -83
30 -95 6 -29 -57 1 30 34 100 40 82 129 184 202 231 155 99 353 130 537 84z
m-1496 -449 l84 -56 -44 -27 c-24 -15 -64 -39 -89 -53 l-45 -26 -87 52 c-48
28 -87 54 -87 58 -1 8 160 108 174 108 6 0 48 -25 94 -56z m80 -145 c-1 -64
-7 -76 -11 -21 -2 23 -6 31 -17 27 -12 -5 -12 -3 0 11 13 16 12 16 -9 5 -13
-7 -25 -18 -28 -26 -3 -8 -13 -11 -21 -8 -11 4 -14 2 -9 -6 4 -6 4 -10 -1 -9
-10 3 -55 -22 -66 -36 -5 -7 -7 -4 -5 6 2 13 144 113 165 118 1 0 2 -27 2 -61z
m2477 -114 c47 -30 83 -59 80 -63 -3 -4 -42 -27 -88 -51 l-83 -43 -83 48 c-45
27 -81 52 -80 56 2 6 156 106 166 108 1 0 41 -25 88 -55z m88 -89 c-3 -7 -36
-30 -75 -51 -38 -21 -69 -41 -69 -45 0 -4 -7 -7 -15 -7 -28 0 -11 17 70 66 88
54 97 57 89 37z m-167 -148 c-3 -7 -5 -2 -5 12 0 14 2 19 5 13 2 -7 2 -19 0
-25z m170 3 c0 -11 -5 -18 -9 -15 -4 3 -5 11 -1 19 7 21 12 19 10 -4z m-17
-30 c0 -14 -29 -21 -36 -9 -4 6 -3 8 4 4 6 -3 13 -2 17 4 8 12 15 13 15 1z
m-2170 -184 c264 -162 305 -190 304 -202 -1 -8 -292 -187 -481 -296 l-51 -29
-159 96 c-87 54 -208 127 -270 163 -62 36 -112 69 -113 73 0 12 517 326 540
327 9 1 112 -59 230 -132z m2025 113 c3 -5 1 -10 -4 -10 -6 0 -11 5 -11 10 0
6 2 10 4 10 3 0 8 -4 11 -10z m-328 -221 l64 -42 -43 -28 c-83 -55 -89 -56
-157 -10 -34 23 -61 43 -61 46 0 6 114 75 124 75 5 0 38 -19 73 -41z m64 -86
c-6 -10 -11 -13 -11 -5 0 19 -89 -45 -100 -71 l-9 -22 0 21 c-1 15 16 33 61
62 65 43 77 46 59 15z m773 -103 c72 -44 144 -88 159 -98 l28 -19 -142 -78
c-78 -42 -154 -86 -169 -97 l-27 -19 -114 69 c-63 38 -138 81 -166 97 -29 15
-53 31 -53 34 0 8 174 118 260 165 36 20 71 33 79 31 8 -3 73 -41 145 -85z
m516 -17 c47 -152 63 -253 63 -393 -1 -168 -28 -297 -84 -407 -128 -249 -307
-364 -774 -498 -249 -72 -339 -105 -474 -176 -135 -71 -240 -149 -366 -273
-60 -60 -113 -110 -117 -110 -3 -1 -10 -5 -15 -10 -5 -5 -2 -6 7 -1 10 5 9 1
-3 -11 -17 -18 -19 -18 -28 -1 -6 9 -15 17 -22 17 -8 0 -8 -3 -2 -8 21 -15 14
-67 -12 -98 -25 -29 -25 -29 -9 -1 9 15 13 27 9 27 -5 0 -1 5 7 10 13 9 13 10
0 10 -8 0 -21 -14 -29 -31 -7 -16 -15 -28 -18 -25 -2 2 0 15 7 28 l11 23 -20
-24 c-23 -25 -29 -16 -8 13 7 10 11 33 9 53 -4 28 -8 34 -23 30 -24 -7 -24 -2
6 57 14 27 23 52 20 54 -3 3 -5 0 -5 -7 0 -7 -5 -9 -12 -5 -7 4 -8 3 -4 -4 4
-7 3 -12 -3 -12 -12 0 -25 -36 -29 -82 -1 -10 -7 -18 -12 -18 -7 0 -7 6 0 19
12 24 13 31 2 31 -5 0 -16 -18 -26 -40 -10 -22 -22 -40 -27 -40 -5 0 -9 -8
-10 -17 0 -10 -3 -13 -5 -6 -3 6 12 37 33 68 21 32 43 65 48 74 18 28 113 144
157 191 208 220 467 364 862 481 233 68 336 104 432 148 406 190 557 528 424
945 -31 96 -32 116 -5 116 9 0 25 -35 45 -97z m-2750 -7 c0 -79 -1 -85 -26
-101 -20 -13 -28 -14 -40 -4 -12 10 -13 9 -9 -3 5 -11 -21 -31 -92 -73 -54
-32 -138 -82 -188 -111 -64 -38 -80 -45 -55 -24 19 16 40 30 47 30 7 0 13 5
13 10 0 6 5 10 10 10 6 0 29 14 53 31 23 18 35 30 27 27 -50 -17 -60 -19 -60
-9 0 6 5 11 10 11 6 0 10 4 10 9 0 13 -59 19 -63 7 -3 -6 -8 -8 -12 -3 -5 4 0
14 11 22 23 18 14 19 -21 3 -14 -6 -24 -17 -21 -23 3 -8 -5 -11 -19 -9 -18 1
-22 -2 -18 -14 4 -13 3 -14 -5 -4 -7 11 -15 10 -43 -6 -33 -18 -34 -21 -37
-85 -2 -37 -1 -67 2 -67 15 0 35 13 30 21 -3 5 2 6 11 3 13 -5 9 -11 -17 -29
l-33 -23 -3 81 c-2 69 0 82 15 91 10 6 45 26 78 44 33 18 90 51 128 73 37 22
72 37 77 34 6 -4 9 -1 8 7 -2 7 5 12 14 12 10 -1 15 2 12 7 -3 5 5 13 18 18
13 6 59 34 103 64 44 31 81 56 83 56 1 1 2 -37 2 -83z m1353 -6 c3 -11 1 -20
-4 -20 -5 0 -9 9 -9 20 0 11 2 20 4 20 2 0 6 -9 9 -20z m597 -226 c58 -35 113
-64 123 -64 9 0 88 41 176 90 88 50 163 90 166 90 11 0 4 -27 -7 -27 -7 0 -69
-33 -136 -72 -68 -39 -126 -71 -129 -71 -3 0 -18 -9 -33 -20 l-28 -20 -79 50
c-43 27 -112 68 -153 90 -41 21 -86 49 -100 61 -32 26 55 -20 200 -107z
m-1950 109 c0 -5 -11 -16 -25 -26 -17 -12 -26 -14 -31 -5 -4 6 -3 8 3 5 6 -4
18 2 28 13 19 21 25 24 25 13z m-3 -70 l1 -48 -7 40 c-6 35 -5 55 3 55 1 0 3
-21 3 -47z m-67 27 c0 -5 -5 -10 -11 -10 -5 0 -7 5 -4 10 3 6 8 10 11 10 2 0
4 -4 4 -10z m712 -68 c71 -42 299 -177 516 -307 34 -21 65 -41 67 -45 3 -5
-21 -23 -52 -40 -88 -49 -438 -256 -526 -311 -43 -27 -82 -49 -87 -49 -10 0
-164 88 -520 299 -85 50 -158 91 -162 91 -29 0 15 32 185 133 105 63 235 139
287 169 52 30 115 67 140 81 25 14 50 26 57 27 7 0 49 -22 95 -48z m-772 33
c0 -2 -10 -9 -22 -15 -22 -11 -22 -10 -4 4 21 17 26 19 26 11z m-50 -30 c0 -2
-10 -9 -22 -15 -22 -11 -22 -10 -4 4 21 17 26 19 26 11z m179 -19 c-19 -17
-119 -75 -119 -69 0 9 100 73 114 73 5 0 7 -2 5 -4z m-269 -37 c-58 -37 -134
-79 -137 -75 -5 4 137 86 147 85 3 0 -2 -5 -10 -10z m119 -53 c-2 -2 -15 -9
-29 -15 -24 -11 -24 -11 -6 3 16 13 49 24 35 12z m-314 -56 c-3 -5 -12 -10
-18 -10 -7 0 -6 4 3 10 19 12 23 12 15 0z m-51 -35 c-4 -8 -11 -15 -16 -15 -6
0 -5 6 2 15 7 8 14 15 16 15 2 0 1 -7 -2 -15z m224 9 c-11 -10 -148 -93 -148
-89 0 6 111 81 130 88 21 8 24 8 18 1z m-793 -54 c284 -88 568 -329 813 -690
l72 -105 21 -125 c18 -107 28 -141 76 -240 43 -92 55 -128 59 -177 2 -34 -1
-65 -6 -68 -5 -3 -7 0 -4 8 3 8 -2 19 -10 26 -13 11 -15 9 -11 -9 2 -12 7 -31
11 -43 6 -20 7 -20 20 -2 8 10 14 14 14 8 0 -7 -5 -15 -10 -18 -6 -4 -8 -16
-5 -28 3 -12 -5 -2 -17 23 -12 25 -55 111 -95 193 -146 295 -321 541 -489 687
-81 70 -135 112 -139 108 -3 -2 6 -27 19 -54 33 -68 74 -173 81 -209 4 -16 15
-48 25 -70 9 -22 20 -61 22 -88 l6 -47 -80 127 c-133 213 -172 268 -192 268
-6 0 -10 9 -9 18 0 10 -1 16 -4 13 -3 -3 -44 31 -92 75 -141 132 -297 213
-442 229 -95 11 -121 18 -114 31 4 5 -4 5 -19 -1 -15 -5 -26 -6 -26 0 0 5 9
11 20 15 16 5 18 10 8 31 -6 13 -14 24 -17 24 -14 0 -68 -42 -120 -92 -37 -36
-48 -43 -33 -22 67 98 213 187 367 224 63 15 221 4 300 -20z m552 -87 c-3 -10
-5 -4 -5 12 0 17 2 24 5 18 2 -7 2 -21 0 -30z m1762 -66 c-6 -5 -169 -102
-209 -125 -51 -28 -352 -207 -398 -236 -22 -14 -43 -22 -46 -19 -3 4 -6 -1 -6
-10 0 -9 -5 -19 -12 -23 -8 -5 -9 -2 -5 9 4 10 1 17 -6 18 -7 0 -2 4 11 10 13
5 78 42 145 82 387 233 519 308 526 301 2 -2 2 -6 0 -7z m-1173 -91 c32 -20
55 -36 50 -36 -4 0 -34 15 -65 34 -31 19 -80 46 -108 60 -29 15 -53 29 -53 31
0 7 103 -46 176 -89z m2721 -38 c-3 -7 -5 -2 -5 12 0 14 2 19 5 13 2 -7 2 -19
0 -25z m-17 -132 c-15 -74 -75 -215 -119 -279 -49 -71 -133 -150 -225 -212
-156 -103 -264 -147 -544 -220 -288 -74 -337 -95 -525 -221 -62 -41 -98 -63
-82 -49 53 45 198 141 260 172 81 41 154 65 357 118 95 25 214 61 263 81 102
40 252 127 307 178 20 19 39 32 41 30 6 -6 117 109 116 120 0 5 4 12 9 15 19
12 72 119 73 147 0 16 3 22 6 15 7 -17 36 68 55 161 10 49 14 57 16 33 2 -16
-2 -56 -8 -89z m-1534 -111 c-4 -12 -249 -162 -381 -235 -33 -18 -70 -40 -82
-48 -13 -8 -23 -12 -23 -9 0 8 102 73 104 67 1 -3 17 7 34 22 18 15 41 30 52
33 11 4 17 11 14 17 -5 7 -2 9 8 6 8 -4 26 4 40 17 14 13 28 22 30 19 7 -6 3
30 -5 42 -7 12 49 12 61 -1 4 -4 -2 -5 -13 -1 -16 5 -21 1 -22 -14 -2 -19 0
-19 19 -5 25 17 34 47 12 38 -9 -3 -12 0 -9 9 3 8 -1 21 -10 28 -18 15 -21 0
-3 -18 9 -9 8 -12 -5 -12 -9 0 -17 5 -17 10 0 6 -10 10 -22 9 l-23 0 23 -9
c12 -5 22 -13 22 -16 0 -4 -3 -4 -7 -1 -3 4 -11 3 -17 -2 -15 -12 -76 -24 -76
-15 0 4 8 13 18 20 15 13 14 14 -10 10 -35 -6 -50 -15 -43 -27 4 -5 -2 -9 -12
-9 -17 -1 -17 -1 0 -14 16 -13 16 -14 1 -20 -10 -4 -22 -2 -28 4 -8 8 -5 9 9
5 15 -5 17 -4 6 3 -17 12 -57 -1 -53 -18 1 -6 -2 -9 -8 -5 -5 3 -47 -17 -92
-44 -46 -27 -91 -53 -100 -56 -10 -4 -15 -12 -11 -18 3 -6 1 -7 -5 -3 -7 4
-12 2 -12 -4 0 -6 -4 -8 -10 -5 -5 3 -10 1 -10 -4 0 -6 -4 -11 -10 -11 -27 0
-3 23 63 61 159 93 456 271 527 316 l75 48 3 -74 c2 -41 1 -80 -2 -86z m1531
-7 c-3 -8 -6 -5 -6 6 -1 11 2 17 5 13 3 -3 4 -12 1 -19z m481 -75 c100 -278
152 -579 152 -887 0 -267 -33 -469 -116 -708 -120 -344 -304 -601 -613 -856
-115 -96 -352 -243 -636 -397 -80 -43 -204 -117 -288 -172 -37 -24 -72 -41
-79 -37 -6 4 -8 3 -5 -3 3 -5 -12 -23 -34 -39 -23 -16 -56 -42 -75 -57 -19
-16 -38 -25 -45 -21 -7 4 -9 3 -5 -4 3 -6 -6 -20 -21 -32 -16 -12 -84 -74
-153 -138 -69 -64 -110 -100 -92 -80 36 38 35 39 -13 73 -19 13 -19 14 5 8 14
-3 29 -11 33 -17 5 -6 5 -1 2 12 -7 23 1 27 23 13 10 -6 10 -10 -3 -21 -8 -7
-15 -17 -15 -23 0 -5 9 -2 20 8 12 10 19 24 16 31 -3 7 0 15 7 17 7 3 -6 4
-28 2 -45 -3 -67 3 -59 16 3 5 0 9 -5 9 -19 0 -12 18 10 23 12 3 18 10 14 17
-4 6 -2 17 4 24 8 9 8 22 1 40 -11 29 -21 32 -49 14 -18 -11 -18 -13 -4 -23
19 -14 8 -39 -13 -31 -9 3 -14 -2 -14 -14 0 -11 -4 -20 -10 -20 -13 0 -13 6 0
31 15 27 -4 24 -23 -3 -9 -13 -16 -18 -16 -12 -1 6 31 42 70 80 39 38 79 76
88 85 43 42 124 98 133 92 6 -3 8 -1 5 5 -13 20 149 122 493 312 272 150 253
139 355 205 271 175 517 408 657 620 111 168 192 366 257 626 64 260 92 481
92 721 0 176 -14 294 -52 433 -34 126 -34 135 -11 135 15 0 24 -14 40 -57z
m-502 -53 c-63 -247 -207 -435 -429 -560 -31 -17 -57 -29 -57 -26 0 3 15 13
33 22 87 46 219 159 289 249 12 17 30 38 40 49 9 10 24 37 32 60 8 22 29 74
46 115 17 41 32 82 34 90 2 9 7 36 12 61 6 30 10 37 12 23 2 -12 -4 -50 -12
-83z m-1508 28 l-2 -63 -3 53 c-2 28 -9 52 -14 52 -6 0 -7 5 -4 10 16 25 25 5
23 -52z m-311 20 c-3 -7 -5 -2 -5 12 0 14 2 19 5 13 2 -7 2 -19 0 -25z m93 -3
c-14 -17 -40 -20 -40 -6 0 5 10 12 23 14 12 2 24 5 26 6 2 0 -2 -6 -9 -14z
m120 -20 c-7 -8 -17 -15 -23 -15 -6 0 -2 7 9 15 25 19 30 19 14 0z m-280 -15
c0 -5 -2 -10 -4 -10 -3 0 -8 5 -11 10 -3 6 -1 10 4 10 6 0 11 -4 11 -10z m97
4 c-3 -3 -12 -4 -19 -1 -8 3 -5 6 6 6 11 1 17 -2 13 -5z m-182 -54 c3 -6 -1
-7 -9 -4 -18 7 -21 14 -7 14 6 0 13 -4 16 -10z m265 5 c0 -2 -10 -9 -22 -15
-22 -11 -22 -10 -4 4 21 17 26 19 26 11z m197 -28 c-3 -8 -34 -32 -69 -52 -99
-60 -561 -345 -583 -360 -20 -14 -20 -13 -17 26 4 34 6 37 16 23 12 -15 15
-15 47 0 19 9 47 27 63 41 16 13 38 27 50 31 11 4 39 19 61 33 22 14 120 73
217 132 98 58 174 110 170 114 -4 5 -2 5 5 1 7 -4 17 2 23 15 12 22 26 19 17
-4z m-652 4 c3 -5 1 -12 -5 -16 -5 -3 -10 1 -10 9 0 18 6 21 15 7z m400 -11
c-3 -5 -12 -10 -18 -10 -7 0 -6 4 3 10 19 12 23 12 15 0z m-2866 -13 c8 -10 7
-41 -5 -118 -19 -122 -14 -307 11 -437 41 -213 164 -472 314 -662 205 -260
465 -464 706 -555 127 -49 115 -39 100 -81 -7 -20 -25 -53 -41 -73 -16 -20
-28 -39 -27 -43 4 -11 -35 -20 -59 -13 -13 4 22 -16 77 -45 55 -28 127 -71
160 -95 77 -55 187 -163 180 -176 -4 -5 -1 -8 6 -7 14 3 107 -128 108 -153 1
-8 12 -30 26 -49 14 -19 25 -35 25 -37 0 -12 -15 5 -51 60 -67 98 -151 198
-232 273 -113 106 -301 225 -328 208 -5 -3 0 -15 11 -26 15 -16 17 -25 9 -35
-9 -9 -8 -17 1 -28 10 -12 10 -15 0 -15 -10 0 -9 -4 1 -16 7 -9 12 -33 11 -55
-2 -21 1 -39 5 -39 4 0 9 -11 9 -25 l2 -26 -49 28 c-183 104 -419 319 -561
510 -176 236 -303 481 -388 748 -53 165 -58 181 -59 160 -1 -26 32 -166 66
-275 93 -307 351 -719 614 -982 173 -172 485 -388 997 -687 217 -127 497 -358
476 -392 -4 -7 -3 -9 4 -5 13 8 76 -80 67 -94 -4 -6 -3 -9 2 -8 4 2 9 -1 10
-6 1 -5 5 -12 10 -15 14 -10 47 -63 66 -106 15 -35 15 -38 1 -20 -11 14 -18
16 -21 8 -6 -15 -33 -17 -33 -3 0 6 -5 10 -11 10 -14 0 -1 -40 22 -66 11 -11
19 -24 19 -27 0 -4 -15 9 -32 30 -18 21 -37 41 -41 44 -4 3 -7 10 -5 15 5 16
-29 57 -35 42 -3 -9 -21 2 -53 33 -87 82 -182 147 -481 335 -386 242 -577 381
-833 606 -300 264 -458 446 -616 711 -129 217 -204 405 -250 620 -21 101 -26
160 -31 338 -6 244 2 343 48 554 39 175 49 196 78 162z m2847 -19 c5 -7 3 -8
-5 -4 -15 10 -73 -13 -65 -25 3 -5 3 -9 0 -9 -19 0 -12 22 11 34 34 18 50 20
59 4z m-236 -73 c-7 -8 -17 -15 -23 -15 -6 0 -2 7 9 15 25 19 30 19 14 0z
m260 -5 c0 -5 -5 -10 -11 -10 -5 0 -7 5 -4 10 3 6 8 10 11 10 2 0 4 -4 4 -10z
m-394 -63 c20 7 18 -1 -6 -22 -20 -18 -20 -17 -19 11 0 16 3 24 5 17 3 -7 12
-9 20 -6z m-2822 -63 c3 -9 6 -79 6 -157 1 -374 98 -715 340 -1192 202 -398
375 -653 571 -841 206 -197 568 -443 925 -629 82 -43 174 -93 205 -111 31 -19
60 -34 63 -34 25 0 273 -186 269 -201 -2 -5 3 -8 10 -6 6 1 11 -4 9 -11 -1 -8
1 -11 6 -8 12 7 54 -33 47 -44 -3 -5 -1 -11 5 -15 5 -3 10 -11 10 -16 0 -6 -5
-7 -12 -3 -7 4 -8 3 -4 -4 4 -6 13 -9 22 -5 13 5 13 8 -3 25 -12 13 -13 17 -2
13 16 -7 74 -85 74 -100 0 -12 -56 -7 -69 6 -6 5 -15 9 -20 9 -18 -1 27 -30
45 -30 10 0 20 -4 23 -9 3 -4 -5 -6 -18 -4 -19 4 -25 -1 -34 -27 -12 -34 -32
-32 -32 3 -1 22 -1 22 -15 3 -8 -11 -15 -14 -15 -8 0 7 -7 12 -15 12 -8 0 -15
4 -15 10 0 5 -6 9 -12 7 -7 -1 -12 3 -11 10 1 6 -4 14 -12 17 -22 8 -18 -14 7
-43 12 -14 2 -7 -23 16 -103 99 -289 226 -499 343 -231 127 -427 242 -520 303
-431 281 -736 579 -946 922 -227 371 -368 735 -418 1076 -25 166 -18 685 9
729 10 16 42 12 49 -6z m1104 -60 c59 -37 128 -82 155 -101 l47 -35 0 -166 c0
-92 -4 -172 -8 -178 -11 -16 -55 -39 -71 -35 -7 1 -10 -2 -6 -9 7 -11 -63 -46
-72 -36 -3 3 7 8 22 12 39 10 15 28 -37 27 -33 0 -36 1 -10 4 17 2 32 8 32 13
0 5 -7 7 -15 4 -11 -4 -15 1 -15 17 0 19 -2 21 -10 9 -8 -12 -10 -10 -11 10
-1 14 -1 37 0 52 1 14 -3 29 -9 33 -8 5 -8 11 1 21 6 7 14 12 18 10 3 -2 4 25
3 62 -3 43 -7 60 -13 51 -5 -8 -6 -21 -4 -30 3 -9 1 -27 -4 -40 -8 -20 -10
-14 -10 34 -1 33 -5 57 -12 57 -5 0 -8 4 -5 9 3 5 -1 12 -10 15 -9 3 -12 2 -9
-4 6 -10 -78 33 -103 53 -7 5 -15 7 -18 4 -4 -3 23 -25 60 -48 36 -23 66 -44
66 -48 -1 -3 -31 -23 -67 -45 l-67 -39 -35 19 c-19 11 -52 35 -73 55 -21 19
-41 32 -46 27 -5 -5 -42 11 -84 35 l-76 43 86 49 c149 87 277 155 290 155 7 0
61 -30 120 -66z m4671 -15 c6 -17 18 -83 28 -147 25 -168 25 -639 0 -802 -60
-389 -225 -752 -474 -1046 -93 -109 -322 -290 -500 -392 -228 -133 -576 -304
-601 -296 -12 4 -13 3 -4 -3 9 -7 6 -12 -13 -21 -33 -15 -48 -15 -39 0 4 7 3
8 -5 4 -6 -4 -9 -11 -6 -16 3 -5 -4 -14 -15 -20 -11 -6 -20 -8 -20 -4 0 4 -8
0 -17 -8 -29 -25 -63 -40 -63 -28 0 5 8 10 18 11 14 0 14 2 -3 9 -27 12 -44
12 -26 1 12 -8 10 -11 -10 -14 -41 -8 -79 -5 -79 5 0 5 9 12 19 15 16 4 17 8
8 18 -7 7 -16 10 -22 7 -5 -3 -3 3 5 13 14 17 13 18 -4 12 -31 -12 -1 18 42
43 34 19 35 19 14 1 -12 -11 -28 -21 -35 -24 -6 -2 -9 -8 -5 -12 4 -4 23 4 42
19 19 14 39 26 44 26 12 0 43 35 37 42 -9 8 87 64 395 231 240 129 404 226
425 251 6 6 44 40 85 76 140 121 236 225 337 360 214 288 325 560 390 950 19
118 25 526 9 683 -8 83 -8 87 12 87 13 0 24 -10 31 -31z m-699 -125 c40 -115
55 -241 55 -449 0 -178 -3 -210 -24 -295 -65 -254 -165 -425 -365 -626 -163
-163 -283 -244 -546 -371 -260 -125 -421 -207 -505 -258 -81 -48 -192 -124
-217 -147 -27 -26 -52 -43 -44 -30 4 7 2 12 -4 12 -7 0 -10 7 -7 15 4 8 2 17
-3 20 -4 3 -10 0 -12 -7 -3 -7 -7 -5 -11 6 -4 10 -3 15 3 11 13 -8 13 1 0 25
-8 16 0 29 47 81 62 66 199 180 301 248 39 26 60 47 56 54 -4 7 -4 9 1 5 4 -4
22 1 39 11 17 10 108 53 201 94 280 125 399 196 573 341 205 173 343 396 413
673 40 157 49 333 24 478 -30 170 -30 167 -10 163 11 -2 25 -22 35 -54z m-610
-94 c-8 -5 -19 -10 -25 -10 -5 0 -3 5 5 10 8 5 20 10 25 10 6 0 3 -5 -5 -10z
m-3410 -50 c0 -21 -5 -30 -16 -30 -11 0 -15 -6 -11 -19 4 -17 1 -18 -18 -11
-53 20 -60 11 -66 -91 l-5 -94 -2 98 -2 97 46 28 c26 15 52 32 58 39 15 17 16
17 16 -17z m1462 -57 c188 -251 297 -518 334 -813 13 -106 14 -203 8 -650 -5
-341 -11 -506 -16 -471 -11 74 -18 76 -20 5 -1 -32 -5 191 -9 496 -5 442 -10
577 -23 663 -28 182 -96 383 -175 517 -104 177 -124 216 -146 275 -13 36 -22
65 -21 65 2 0 32 -39 68 -87z m1438 -24 c30 -20 113 -79 183 -132 l128 -95
-125 -66 c-242 -127 -377 -219 -496 -338 -76 -76 -190 -210 -190 -225 0 -4 -8
-17 -16 -28 l-16 -20 4 20 c2 11 5 22 8 25 3 3 18 25 32 50 41 70 56 88 164
196 100 99 232 197 384 284 41 23 83 50 93 58 9 8 17 11 17 7 0 -4 8 -1 18 7
9 8 32 20 50 28 32 13 42 29 20 32 -7 0 -18 2 -24 2 -5 1 -47 30 -93 64 l-82
63 -96 -51 c-170 -91 -271 -165 -402 -293 -160 -158 -285 -353 -363 -566 -29
-79 -37 -95 -32 -61 8 53 57 196 90 262 28 54 29 59 12 55 -7 -1 -13 5 -13 13
0 16 -35 41 -47 34 -5 -3 -8 9 -8 25 0 20 -5 31 -14 31 -8 0 -16 7 -20 15 -3
8 -1 15 4 15 6 0 10 5 10 10 0 6 -7 10 -16 10 -8 0 -13 4 -9 9 3 5 1 12 -4 16
-6 3 -8 12 -5 20 4 8 9 13 13 11 4 -3 7 3 7 13 0 13 -6 17 -21 14 -19 -4 -19
-4 -2 7 13 9 15 15 7 25 -8 10 11 33 81 99 133 125 295 236 574 394 l70 39 35
-20 c19 -12 60 -37 90 -58z m-2900 -11 c0 -28 -2 -49 -4 -47 -8 9 -13 99 -5
99 5 0 9 -23 9 -52z m2018 -19 c3 -12 2 -12 -6 0 -9 13 -13 13 -29 0 -17 -13
-17 -13 -4 4 16 20 33 18 39 -4z m127 1 c3 -5 1 -10 -4 -10 -6 0 -11 5 -11 10
0 6 2 10 4 10 3 0 8 -4 11 -10z m-2218 -52 c-2 -13 -4 -5 -4 17 -1 22 1 32 4
23 2 -10 2 -28 0 -40z m856 -24 c212 -120 367 -263 433 -400 31 -66 35 -79 24
-99 -6 -12 -13 -34 -13 -49 -2 -22 -4 -24 -14 -11 -13 19 -28 3 -17 -17 4 -7
-2 -5 -12 6 -14 13 -15 20 -6 23 6 3 9 9 6 15 -4 6 -9 5 -15 -3 -6 -10 -13 -6
-30 16 -48 65 -199 204 -279 257 -84 56 -289 163 -362 189 -21 7 -38 16 -38
19 0 9 202 99 223 100 10 0 55 -21 100 -46z m1118 3 c-10 -9 -11 -8 -5 6 3 10
9 15 12 12 3 -3 0 -11 -7 -18z m1707 -70 c13 -16 -10 -54 -101 -164 -88 -108
-189 -189 -432 -350 -121 -80 -264 -180 -318 -221 -111 -85 -268 -235 -352
-336 -136 -164 -265 -393 -338 -601 -33 -92 -45 -133 -92 -299 -21 -75 -28
-69 -10 9 12 53 12 58 -1 41 -20 -28 -18 -6 7 84 74 270 209 555 352 745 192
254 394 432 798 704 225 151 323 230 405 330 32 39 61 71 65 71 3 0 11 -6 17
-13z m-3601 -59 c-3 -7 -5 -2 -5 12 0 14 2 19 5 13 2 -7 2 -19 0 -25z m48 2
c-3 -5 -12 -10 -18 -10 -7 0 -6 4 3 10 19 12 23 12 15 0z m-163 -52 c2 -21 0
-38 -4 -38 -4 0 -8 21 -7 48 1 52 6 48 11 -10z m1597 -773 c1 -335 6 -663 11
-727 12 -141 39 -300 85 -498 5 -24 5 -24 -4 -2 -13 27 -21 29 -14 2 3 -11 1
-20 -5 -20 -5 0 -12 10 -15 23 -3 12 -12 47 -20 77 -49 181 -57 281 -58 710 0
786 4 1194 11 1120 4 -41 8 -349 9 -685z m2648 516 c-6 -97 -38 -201 -98 -326
-22 -44 -33 -72 -27 -61 7 10 43 64 80 121 79 121 138 172 154 132 13 -35
-144 -320 -257 -467 -215 -278 -379 -399 -889 -655 -240 -121 -430 -231 -535
-310 -194 -146 -393 -363 -503 -547 -19 -32 -38 -55 -43 -52 -5 3 -6 -3 -2
-12 5 -13 3 -15 -7 -9 -9 5 -11 4 -6 -3 4 -7 0 -22 -8 -34 -9 -12 -16 -29 -16
-38 0 -8 -9 -26 -20 -40 l-19 -25 14 50 c14 46 13 48 -1 30 -16 -19 -16 -19
-10 10 4 17 14 43 22 59 8 16 14 37 14 47 0 11 5 16 13 13 9 -3 13 6 14 30 1
43 33 117 46 109 6 -3 7 -1 3 5 -10 16 87 192 107 192 6 0 8 3 4 6 -3 3 -2 11
3 18 5 6 30 38 56 71 71 92 209 224 314 301 133 98 231 154 495 288 382 192
492 266 703 471 187 181 274 309 331 490 23 70 44 152 47 181 11 89 27 52 21
-45z m-3647 69 c74 -29 295 -141 374 -189 224 -138 411 -319 475 -461 16 -36
18 -105 2 -96 -6 4 -12 -33 -15 -87 -1 -17 -6 -25 -13 -23 -7 3 -10 -1 -7 -8
3 -9 -2 -13 -17 -12 -12 0 -24 -6 -26 -14 -4 -11 -2 -12 5 -2 6 9 9 3 9 -18 0
-27 -5 -22 -53 50 -59 91 -84 121 -200 242 -46 48 -84 90 -84 93 0 4 -20 27
-44 51 -25 24 -47 53 -51 64 -3 11 -11 20 -16 20 -5 0 -9 7 -9 15 0 8 -4 15
-10 15 -5 0 -10 6 -10 14 0 7 -11 21 -24 31 -13 10 -22 24 -19 32 3 9 0 11
-10 7 -10 -3 -18 2 -22 15 -3 12 -14 21 -22 21 -9 0 -14 3 -10 6 8 8 -16 33
-25 27 -5 -2 -8 0 -8 6 0 5 6 11 13 14 8 3 3 11 -13 25 -23 19 -23 21 -7 28
22 8 27 5 -122 82 -55 29 -101 57 -101 62 0 13 1 13 60 -10z m145 -130 c-3 -5
-11 -10 -16 -10 -6 0 -7 5 -4 10 3 6 11 10 16 10 6 0 7 -4 4 -10z m-30 -236
c183 -100 281 -170 380 -269 86 -86 174 -200 163 -211 -3 -2 -38 29 -78 70
-40 41 -78 74 -83 73 -6 -1 -11 3 -12 8 -1 18 -16 35 -26 30 -5 -4 -9 0 -9 7
0 7 -10 21 -22 30 -13 10 -45 38 -73 63 -27 25 -55 43 -62 41 -7 -3 -15 0 -19
6 -5 7 -2 8 7 3 31 -17 -8 12 -61 46 -67 44 -193 115 -277 158 -35 17 -63 38
-63 46 0 19 69 -11 235 -101z m1555 95 c0 -6 -4 -7 -10 -4 -5 3 -10 11 -10 16
0 6 5 7 10 4 6 -3 10 -11 10 -16z m1045 -19 c-5 -8 -360 -188 -390 -198 -23
-7 36 33 125 86 137 81 285 144 265 112z m-858 -189 c-12 -22 -23 -38 -25 -37
-5 6 31 76 39 76 4 0 -2 -18 -14 -39z m2433 -18 c0 -15 -18 -86 -41 -158 -126
-400 -297 -714 -539 -991 -19 -22 -47 -56 -63 -76 -22 -29 -32 -35 -57 -32
-25 3 -28 1 -18 -10 10 -10 15 -11 20 -2 5 7 8 8 8 0 0 -17 -38 -47 -53 -41
-8 3 -20 1 -28 -4 -10 -6 -8 -9 10 -9 13 0 21 -3 17 -7 -4 -5 -22 -8 -39 -8
-18 0 -32 -6 -35 -15 -5 -13 -3 -13 14 0 15 11 16 11 7 0 -22 -24 -14 -34 10
-14 l22 19 -18 -22 c-16 -18 -23 -20 -43 -11 -28 13 -31 23 -8 32 8 3 12 10 9
16 -3 5 -1 10 4 10 6 0 11 5 11 10 0 6 -7 10 -15 10 -8 0 -15 6 -15 14 0 8 -7
16 -15 20 -8 3 -15 10 -15 16 0 8 6 8 20 0 17 -9 20 -8 20 9 0 31 -15 33 -40
6 -13 -14 -31 -25 -39 -24 -11 0 -12 2 -3 6 7 2 42 35 78 71 37 37 64 62 61
56 -4 -6 0 -11 7 -11 8 0 12 6 9 12 -6 17 24 45 41 39 7 -3 19 3 27 13 13 16
12 17 -4 4 -9 -8 -20 -11 -24 -8 -9 10 27 58 38 52 5 -4 8 -1 7 7 -2 7 3 12
10 10 8 -1 11 2 7 9 -8 13 44 71 57 63 5 -3 7 -2 6 3 -5 15 46 83 59 79 7 -3
10 1 7 8 -3 7 1 20 8 27 69 75 257 364 326 504 33 66 76 163 97 215 48 123 52
130 75 130 15 0 20 -7 20 -27z m-5809 -90 c136 -343 311 -626 526 -853 158
-166 461 -401 691 -535 9 -5 35 -22 57 -36 22 -15 108 -62 190 -105 83 -43
152 -80 155 -83 3 -3 10 -7 16 -8 17 -3 249 -107 327 -146 37 -18 64 -37 60
-42 -5 -4 -2 -5 4 -1 28 16 80 -32 74 -67 -1 -4 8 -3 19 3 11 6 20 7 19 3 -4
-26 2 -33 28 -27 22 6 25 4 20 -10 -6 -14 -3 -16 16 -11 17 5 19 4 7 -4 -11
-8 -12 -13 -3 -19 9 -5 6 -12 -10 -21 -20 -13 -21 -13 -9 1 10 13 10 17 -2 21
-8 3 -17 -1 -20 -9 -5 -12 -12 -9 -37 15 -31 31 -49 39 -49 21 0 -5 -6 -10
-14 -10 -26 0 -28 -20 -4 -29 21 -9 19 -10 -14 -10 -31 -1 -35 2 -31 19 3 11
9 20 14 20 5 0 9 6 9 14 0 8 -10 14 -25 14 -21 0 -23 -3 -14 -14 7 -8 9 -17 6
-20 -10 -10 -39 5 -32 16 3 5 0 10 -7 11 -7 0 -23 2 -35 5 -12 2 -25 -1 -28
-6 -3 -6 -15 -10 -25 -10 -10 0 -22 -5 -26 -12 -5 -8 0 -9 14 -6 12 4 22 3 22
-2 0 -4 -9 -10 -21 -13 -14 -4 -18 -10 -13 -19 4 -7 3 -10 -1 -5 -12 10 -14
47 -3 53 14 9 9 24 -6 18 -7 -3 -20 1 -28 9 -11 12 -19 12 -36 3 -13 -7 -20
-15 -16 -19 4 -4 13 -2 21 5 11 9 18 7 31 -6 16 -17 16 -18 -8 -12 l-25 7 25
-15 c37 -22 16 -19 -31 4 -22 12 -37 25 -34 30 3 5 0 7 -8 4 -17 -6 -50 23
-41 38 4 6 0 6 -13 -1 -15 -7 -25 -7 -39 3 -18 13 -176 97 -299 161 -361 186
-775 509 -979 764 -201 252 -371 590 -451 897 -29 111 -26 134 15 134 26 0 30
-6 71 -107z m4228 43 c-2 -1 -38 -19 -80 -39 -42 -20 -125 -68 -185 -108 -60
-39 -102 -64 -94 -56 8 8 53 40 100 71 47 31 90 60 96 64 29 20 50 33 64 38 8
3 33 14 55 24 34 15 59 19 44 6z m-2704 -26 c3 -6 -1 -7 -9 -4 -18 7 -21 14
-7 14 6 0 13 -4 16 -10z m65 -30 c22 -11 40 -23 40 -25 0 -5 -79 32 -89 41
-11 10 14 2 49 -16z m141 -77 c41 -26 76 -50 79 -53 3 -3 42 -36 87 -73 109
-92 209 -210 258 -307 34 -66 25 -64 -13 4 -79 140 -296 351 -449 438 -29 16
-53 32 -53 34 0 11 23 0 91 -43z m2459 -11 c-94 -44 -246 -115 -255 -119 -5
-2 -1 3 10 12 11 9 54 33 95 52 41 19 93 43 115 54 22 10 47 19 55 18 8 0 -1
-8 -20 -17z m-370 -105 c0 -2 -12 -14 -27 -28 l-28 -24 24 28 c23 25 31 32 31
24z m-60 -231 c0 -2 -37 -28 -82 -56 -86 -55 -175 -120 -218 -161 -14 -13 -36
-33 -50 -44 l-25 -20 25 30 c77 91 157 154 275 217 75 40 75 40 75 34z m-1530
-231 c0 -5 -11 10 -25 34 -14 23 -25 46 -25 50 1 10 50 -73 50 -84z m2770
-340 c-43 -42 -70 -59 -54 -33 4 7 3 8 -4 4 -6 -4 -8 -14 -5 -22 4 -10 1 -15
-8 -14 -26 4 -39 0 -39 -11 0 -8 5 -8 18 1 9 7 -5 -8 -31 -33 -33 -30 -55 -43
-68 -40 -10 3 -19 0 -19 -6 0 -6 -7 -11 -16 -11 -13 0 -14 -3 -5 -14 16 -19
-10 -39 -42 -31 -18 5 -28 2 -35 -12 -6 -10 -14 -14 -18 -10 -4 4 -2 13 4 19
14 14 16 38 3 38 -5 0 -12 -10 -14 -22 -3 -13 -4 -5 -2 17 2 37 5 40 31 41 16
0 32 -4 36 -10 5 -8 8 -7 8 1 0 22 -36 34 -64 21 -14 -6 -26 -15 -26 -20 0 -4
-4 -8 -10 -8 -5 0 -10 4 -10 8 0 14 140 83 152 76 7 -4 8 -3 4 4 -6 11 0 14
20 11 4 0 10 5 14 12 5 7 23 12 41 11 18 0 28 2 22 6 -7 5 2 12 22 18 19 6 32
7 29 2 -3 -4 2 -5 10 -2 9 3 13 10 10 15 -3 6 6 7 23 3 15 -4 25 -3 21 1 -5 5
2 14 15 21 36 20 34 16 -13 -31z m-30 -135 c0 -5 -5 -10 -11 -10 -5 0 -7 5 -4
10 3 6 8 10 11 10 2 0 4 -4 4 -10z m-390 -35 c0 -2 -10 -9 -22 -15 -22 -11
-22 -10 -4 4 21 17 26 19 26 11z m290 -24 c0 -5 -7 -12 -16 -15 -14 -5 -15 -4
-4 9 14 17 20 19 20 6z m-3820 -22 c0 6 5 11 11 11 5 0 7 -5 4 -10 -4 -6 5
-10 22 -9 37 3 67 -7 112 -38 20 -14 60 -36 89 -49 29 -13 67 -34 85 -46 17
-13 41 -28 52 -34 11 -6 38 -21 60 -34 22 -12 60 -34 85 -48 67 -37 145 -86
148 -94 2 -4 11 -4 20 -1 9 3 14 3 10 -2 -4 -4 7 -16 25 -26 17 -9 31 -22 30
-28 -2 -6 7 -11 19 -11 15 0 19 -3 12 -10 -11 -11 -106 27 -300 119 -181 87
-488 272 -524 317 -14 17 -14 17 13 0 16 -11 27 -14 27 -7z m2996 6 c-11 -8
-25 -15 -30 -15 -6 0 -2 7 8 15 11 8 25 15 30 15 6 0 2 -7 -8 -15z m531 1 c0
-8 -6 -12 -15 -9 -11 5 -11 7 0 14 7 5 13 9 14 9 0 0 1 -6 1 -14z m58 -16 c8
12 25 13 25 1 0 -5 -8 -12 -17 -14 -12 -3 -10 -5 7 -6 l25 -1 -29 -15 c-16 -9
-31 -13 -34 -10 -3 3 0 5 6 5 7 0 12 5 12 11 0 6 -7 8 -16 5 -23 -9 -37 3 -23
20 8 10 15 11 24 4 9 -8 15 -8 20 0z m329 -5 c3 -9 0 -15 -9 -15 -16 0 -27 14
-18 24 10 10 21 7 27 -9z m-254 -9 c0 -2 -8 -10 -17 -17 -16 -13 -17 -12 -4 4
13 16 21 21 21 13z m259 -92 c-26 -28 -66 -54 -55 -35 5 7 -1 11 -14 11 -25 0
-19 15 9 23 15 4 18 1 13 -12 -5 -14 -4 -14 11 -2 9 7 14 17 11 22 -3 5 1 6 9
3 8 -3 18 -1 22 5 3 6 9 11 12 11 4 0 -4 -12 -18 -26z m-455 4 c-5 -8 -1 -9
12 -5 18 7 18 6 2 -6 -14 -11 -15 -16 -5 -27 10 -12 9 -12 -5 -2 -9 7 -15 21
-13 30 5 23 4 22 11 22 3 0 2 -5 -2 -12z m-1074 -39 c0 -10 -5 -19 -11 -19 -5
0 -8 4 -4 9 3 5 1 12 -5 16 -6 4 -8 11 -4 16 8 14 24 0 24 -22z m416 9 c-1
-13 3 -27 9 -31 5 -5 -1 -5 -14 -2 -18 6 -22 4 -16 -6 5 -8 6 -12 2 -9 -3 3
-6 10 -7 15 -1 6 -7 17 -13 25 -9 12 -9 13 3 3 19 -17 33 -16 27 1 -3 8 -3 17
0 20 10 9 10 8 9 -16z m389 2 c-3 -5 -12 -10 -18 -10 -7 0 -6 4 3 10 19 12 23
12 15 0z m-285 -20 c0 -5 -2 -10 -4 -10 -3 0 -8 5 -11 10 -3 6 -1 10 4 10 6 0
11 -4 11 -10z m50 0 c0 -5 -8 -10 -17 -10 -15 0 -16 2 -3 10 19 12 20 12 20 0z
m-75 -20 c3 -5 13 -7 23 -4 12 4 12 2 -3 -7 -11 -7 -24 -14 -30 -15 -5 0 -16
-2 -23 -2 -7 -1 -10 -7 -6 -14 5 -7 3 -8 -6 -3 -10 6 -7 12 11 26 29 23 13 25
-21 3 l-25 -16 24 21 c25 23 46 27 56 11z m1089 -12 c-84 -101 -300 -261 -444
-332 -75 -37 -30 0 63 50 37 21 67 41 67 46 0 4 6 8 13 8 7 0 32 16 54 35 23
19 46 35 52 35 6 0 11 7 11 16 0 8 5 12 10 9 6 -3 10 -1 10 4 0 6 6 11 13 11
7 0 47 31 88 70 77 72 95 86 63 48z m-1724 -28 c-6 -11 -8 -26 -4 -33 5 -9 4
-9 -5 -1 -10 9 -10 17 -2 33 7 12 14 21 17 21 2 0 0 -9 -6 -20z m95 -40 c3 -5
1 -10 -4 -10 -6 0 -11 5 -11 10 0 6 2 10 4 10 3 0 8 -4 11 -10z m28 -95 c-3
-8 -10 -15 -15 -15 -7 0 -6 5 1 13 6 8 7 18 3 22 -4 5 -2 5 5 1 7 -4 10 -13 6
-21z m-937 -112 c-7 -7 -26 7 -26 19 0 6 6 6 15 -2 9 -7 13 -15 11 -17z m825
-66 c-10 -9 -11 -8 -5 6 3 10 9 15 12 12 3 -3 0 -11 -7 -18z m-711 -57 c6 -11
8 -20 6 -20 -3 0 -10 9 -16 20 -6 11 -8 20 -6 20 3 0 10 -9 16 -20z m54 -76
c9 -24 2 -26 -12 -4 -7 11 -8 20 -3 20 5 0 12 -7 15 -16z m-700 -35 c-3 -5
-10 -7 -15 -3 -5 3 -7 10 -3 15 3 5 10 7 15 3 5 -3 7 -10 3 -15z m579 2 c-5
-3 -12 -14 -16 -23 -3 -10 -11 -18 -16 -18 -6 0 -3 13 7 29 9 16 20 27 25 24
5 -3 5 -8 0 -12z m-424 -35 c1 -6 -5 -1 -13 9 -8 11 -12 24 -8 29 5 9 20 -17
21 -38z m-162 -12 c-3 -3 -12 -4 -19 -1 -8 3 -5 6 6 6 11 1 17 -2 13 -5z m43
-24 c0 -5 -4 -10 -10 -10 -5 0 -10 5 -10 10 0 6 5 10 10 10 6 0 10 -4 10 -10z
m15 -70 c3 -6 -1 -7 -9 -4 -18 7 -21 14 -7 14 6 0 13 -4 16 -10z"/>
<path d="M4443 8568 c-15 -20 -25 -38 -20 -38 3 0 12 11 21 25 17 26 16 35 -1
13z"/>
<path d="M6970 6624 c-135 -112 -290 -184 -587 -273 -294 -88 -486 -162 -468
-179 2 -2 20 5 39 17 22 14 37 18 41 11 3 -5 12 -10 18 -10 8 0 8 3 -1 9 -10
6 -6 11 17 19 17 6 31 7 31 3 0 -10 58 -7 83 4 11 5 16 14 13 24 -4 10 1 7 13
-6 21 -25 36 -30 28 -10 -4 10 7 13 46 12 29 -1 58 3 65 9 10 7 16 5 22 -5 8
-11 12 -11 24 6 12 16 16 17 30 6 9 -8 16 -9 16 -3 0 6 11 9 25 7 14 -1 28 2
31 7 3 5 11 4 19 -2 9 -8 15 -8 20 0 3 5 17 10 29 10 16 0 26 7 29 21 5 17 11
20 31 17 15 -3 24 -1 23 6 -1 6 6 10 16 10 9 -1 17 2 17 7 0 5 11 9 24 9 13 0
29 7 36 15 7 9 18 14 25 12 6 -3 20 2 30 10 19 15 19 15 -7 11 -15 -3 -25 -1
-22 3 3 5 16 9 29 9 13 0 35 11 48 24 14 14 27 22 30 20 3 -3 11 4 17 16 7 12
18 19 26 16 9 -3 14 1 14 13 0 10 9 21 20 24 11 3 20 9 19 14 -3 18 1 46 6 41
3 -3 26 15 51 39 25 25 43 47 41 49 -1 2 -28 -17 -57 -42z m-100 -124 c-8 -5
-19 -10 -25 -10 -5 0 -3 5 5 10 8 5 20 10 25 10 6 0 3 -5 -5 -10z m-625 -240
c-3 -5 -12 -10 -18 -10 -7 0 -6 4 3 10 19 12 23 12 15 0z"/>
<path d="M6560 6300 c0 -5 5 -10 10 -10 6 0 10 5 10 10 0 6 -4 10 -10 10 -5 0
-10 -4 -10 -10z"/>
<path d="M5336 5723 c-6 -14 -5 -15 5 -6 7 7 10 15 7 18 -3 3 -9 -2 -12 -12z"/>
<path d="M4275 7360 c-3 -5 -1 -10 4 -10 6 0 11 5 11 10 0 6 -2 10 -4 10 -3 0
-8 -4 -11 -10z"/>
<path d="M4370 7361 c0 -6 5 -13 12 -17 6 -4 8 -3 4 4 -3 5 0 13 6 15 8 3 6 6
-4 6 -10 1 -18 -3 -18 -8z"/>
<path d="M4240 7341 c0 -5 7 -11 15 -15 8 -3 15 -1 15 3 0 5 -7 11 -15 15 -8
3 -15 1 -15 -3z"/>
<path d="M4305 7332 c4 -9 0 -15 -14 -19 -12 -3 -21 -9 -21 -14 0 -5 -12 -9
-26 -9 -16 0 -23 -4 -18 -11 4 -8 -1 -9 -16 -4 -16 5 -20 4 -15 -5 5 -9 1 -10
-16 -5 -23 7 -24 7 -4 -9 23 -17 39 -21 30 -6 -3 6 1 10 9 10 26 0 30 2 58 25
15 13 33 25 40 28 10 4 10 7 -1 18 -10 11 -12 11 -6 1z"/>
<path d="M4111 7316 c-27 -15 -37 -46 -15 -46 8 0 14 5 14 11 0 6 9 8 23 4 22
-6 21 -6 -2 8 -20 12 -21 15 -6 20 24 10 27 9 19 -5 -4 -7 -3 -8 5 -4 11 7 6
26 -7 26 -4 -1 -18 -7 -31 -14z"/>
<path d="M4940 6934 c-36 -26 -54 -42 -32 -30 7 4 27 12 45 16 29 9 30 8 13
-5 -20 -15 -20 -15 0 -16 10 -1 25 -1 33 0 7 2 10 -2 7 -7 -3 -5 8 -8 27 -6
19 3 36 -1 42 -9 13 -18 95 -60 102 -53 5 4 -192 137 -199 135 -2 0 -19 -12
-38 -25z"/>
<path d="M2903 6922 c-53 -22 -70 -37 -52 -47 7 -5 17 -1 25 9 7 11 18 15 25
10 8 -4 10 -3 5 4 -4 7 -3 12 1 12 5 0 18 7 29 15 24 18 19 18 -33 -3z"/>
<path d="M2875 6859 c-11 -17 1 -21 15 -4 8 9 8 15 2 15 -6 0 -14 -5 -17 -11z"/>
<path d="M5470 6465 c-7 -8 -9 -15 -6 -15 4 0 14 7 22 15 9 8 11 15 6 15 -5 0
-15 -7 -22 -15z"/>
<path d="M5425 6440 c4 -6 11 -8 16 -5 14 9 11 15 -7 15 -8 0 -12 -5 -9 -10z"/>
<path d="M5625 6440 c-3 -6 1 -7 9 -4 18 7 21 14 7 14 -6 0 -13 -4 -16 -10z"/>
<path d="M5560 6418 c-19 -10 -28 -18 -20 -18 13 0 13 -1 0 -10 -8 -5 -10 -10
-5 -10 11 0 70 49 64 53 -2 2 -20 -5 -39 -15z"/>
<path d="M5724 3275 c-19 -19 -38 -35 -42 -35 -4 0 -13 -10 -21 -22 -14 -22
-13 -22 5 -8 10 8 25 21 32 28 7 6 18 12 23 12 5 0 9 7 9 15 0 17 34 37 45 27
5 -4 5 -1 1 6 -10 17 -13 16 -52 -23z"/>
<path d="M5710 3220 c0 -5 5 -10 10 -10 6 0 10 5 10 10 0 6 -4 10 -10 10 -5 0
-10 -4 -10 -10z"/>
<path d="M5590 3151 c0 -5 5 -13 10 -16 6 -3 10 -2 10 4 0 5 -4 13 -10 16 -5
3 -10 2 -10 -4z"/>
<path d="M5836 3113 c-6 -14 -5 -15 5 -6 7 7 10 15 7 18 -3 3 -9 -2 -12 -12z"/>
<path d="M5759 3083 c15 -31 14 -35 -8 -23 -25 13 -51 13 -51 -1 0 -5 5 -7 10
-4 15 9 41 -14 33 -29 -3 -6 10 4 30 23 20 19 34 37 31 40 -3 3 -9 -1 -14 -9
-8 -13 -12 -12 -25 5 -16 20 -16 20 -6 -2z"/>
<path d="M5665 3060 c-3 -5 -1 -10 4 -10 6 0 11 5 11 10 0 6 -2 10 -4 10 -3 0
-8 -4 -11 -10z"/>
<path d="M3510 4180 c0 -5 5 -10 11 -10 5 0 7 5 4 10 -3 6 -8 10 -11 10 -2 0
-4 -4 -4 -10z"/>
<path d="M4675 2720 c-8 -12 10 -37 37 -51 12 -7 18 -6 18 1 0 6 -12 15 -26
20 -17 7 -24 15 -20 25 6 17 0 20 -9 5z"/>
<path d="M3335 5700 c-3 -5 -1 -10 4 -10 6 0 11 5 11 10 0 6 -2 10 -4 10 -3 0
-8 -4 -11 -10z"/>
<path d="M3360 5665 c0 -22 4 -34 10 -30 6 3 10 17 10 30 0 13 -4 27 -10 30
-6 4 -10 -8 -10 -30z"/>
<path d="M3330 5669 c0 -19 28 -116 30 -106 6 18 5 32 -1 37 -4 3 -9 20 -12
38 -6 35 -17 56 -17 31z"/>
<path d="M3423 5665 c0 -8 4 -15 9 -15 4 0 8 7 8 15 0 8 -4 15 -8 15 -5 0 -9
-7 -9 -15z"/>
<path d="M3397 5596 c-4 -15 -6 -31 -2 -34 10 -10 16 6 13 35 l-3 28 -8 -29z"/>
<path d="M3446 5480 c3 -24 -1 -29 -29 -35 -18 -4 -39 -7 -47 -6 -10 2 -9 -2
5 -13 24 -19 36 -20 33 -3 -2 6 4 12 12 12 9 0 29 11 45 24 29 22 29 23 5 16
-22 -7 -23 -6 -12 7 10 13 10 17 -1 21 -10 4 -13 -2 -11 -23z"/>
<path d="M3390 5470 c0 -5 7 -10 16 -10 8 0 12 5 9 10 -3 6 -10 10 -16 10 -5
0 -9 -4 -9 -10z"/>
<path d="M6550 3340 c-9 -6 -10 -10 -3 -10 6 0 15 5 18 10 8 12 4 12 -15 0z"/>
<path d="M6170 3220 c-18 -12 -2 -12 25 0 13 6 15 9 5 9 -8 0 -22 -4 -30 -9z"/>
<path d="M6195 3200 c3 -5 11 -10 16 -10 6 0 7 5 4 10 -3 6 -11 10 -16 10 -6
0 -7 -4 -4 -10z"/>
<path d="M6270 3190 c-9 -6 -10 -10 -3 -10 6 0 15 5 18 10 8 12 4 12 -15 0z"/>
<path d="M3187 5619 c7 -7 15 -10 18 -7 3 3 -2 9 -12 12 -14 6 -15 5 -6 -5z"/>
<path d="M5450 4900 c-6 -11 -8 -20 -6 -20 3 0 10 9 16 20 6 11 8 20 6 20 -3
0 -10 -9 -16 -20z"/>
<path d="M7379 3413 c-13 -16 -12 -17 4 -4 16 13 21 21 13 21 -2 0 -10 -8 -17
-17z"/>
<path d="M7220 3410 c0 -5 7 -7 15 -4 8 4 15 8 15 10 0 2 -7 4 -15 4 -8 0 -15
-4 -15 -10z"/>
<path d="M7217 3353 c-12 -11 -8 -23 8 -23 8 0 15 7 15 15 0 16 -12 20 -23 8z"/>
<path d="M4230 2650 c-8 -5 -10 -10 -5 -10 6 0 17 5 25 10 8 5 11 10 5 10 -5
0 -17 -5 -25 -10z"/>
<path d="M6965 3320 c-3 -6 1 -7 9 -4 18 7 21 14 7 14 -6 0 -13 -4 -16 -10z"/>
</g>
</svg>
